<svg width="75" height="75" viewBox="0 0 75 75" fill="none" xmlns="http://www.w3.org/2000/svg">
<rect width="75" height="75" rx="37.5" fill="#F4837D"/>
<g filter="url(#filter0_i_8_74)">
<path fill-rule="evenodd" clip-rule="evenodd" d="M29.4417 18.7766C31.3967 18.6866 32.0201 18.6666 37.0001 18.6666C41.9801 18.6666 42.6034 18.6883 44.5567 18.7766C46.5101 18.865 47.8434 19.1766 49.0101 19.6283C50.2317 20.09 51.3401 20.8116 52.2567 21.745C53.1901 22.66 53.9101 23.7666 54.3701 24.99C54.8234 26.1566 55.1334 27.49 55.2234 29.44C55.3134 31.3983 55.3334 32.0216 55.3334 37C55.3334 41.98 55.3117 42.6033 55.2234 44.5583C55.1351 46.5083 54.8234 47.8417 54.3701 49.0083C53.9101 50.2318 53.1889 51.3403 52.2567 52.2566C51.3401 53.19 50.2317 53.91 49.0101 54.37C47.8434 54.8233 46.5101 55.1333 44.5601 55.2233C42.6034 55.3133 41.9801 55.3333 37.0001 55.3333C32.0201 55.3333 31.3967 55.3117 29.4417 55.2233C27.4917 55.135 26.1584 54.8233 24.9917 54.37C23.7683 53.9099 22.6598 53.1887 21.7434 52.2566C20.8107 51.3411 20.0889 50.2331 19.6284 49.01C19.1767 47.8433 18.8667 46.51 18.7767 44.56C18.6867 42.6016 18.6667 41.9783 18.6667 37C18.6667 32.02 18.6884 31.3966 18.7767 29.4433C18.8651 27.49 19.1767 26.1566 19.6284 24.99C20.0896 23.7668 20.8119 22.6588 21.7451 21.7433C22.6601 20.8108 23.7675 20.0891 24.9901 19.6283C26.1567 19.1766 27.4901 18.8666 29.4401 18.7766H29.4417ZM44.4084 22.0766C42.4751 21.9883 41.8951 21.97 37.0001 21.97C32.1051 21.97 31.5251 21.9883 29.5917 22.0766C27.8034 22.1583 26.8334 22.4566 26.1867 22.7083C25.3317 23.0416 24.7201 23.4366 24.0784 24.0783C23.4702 24.6701 23.002 25.3905 22.7084 26.1866C22.4567 26.8333 22.1584 27.8033 22.0767 29.5916C21.9884 31.525 21.9701 32.105 21.9701 37C21.9701 41.895 21.9884 42.475 22.0767 44.4083C22.1584 46.1966 22.4567 47.1667 22.7084 47.8133C23.0017 48.6083 23.4701 49.33 24.0784 49.9217C24.6701 50.53 25.3917 50.9983 26.1867 51.2917C26.8334 51.5433 27.8034 51.8417 29.5917 51.9233C31.5251 52.0117 32.1034 52.03 37.0001 52.03C41.8967 52.03 42.4751 52.0117 44.4084 51.9233C46.1967 51.8417 47.1667 51.5433 47.8134 51.2917C48.6684 50.9583 49.2801 50.5633 49.9217 49.9217C50.5301 49.33 50.9984 48.6083 51.2917 47.8133C51.5434 47.1667 51.8417 46.1966 51.9234 44.4083C52.0117 42.475 52.0301 41.895 52.0301 37C52.0301 32.105 52.0117 31.525 51.9234 29.5916C51.8417 27.8033 51.5434 26.8333 51.2917 26.1866C50.9584 25.3316 50.5634 24.72 49.9217 24.0783C49.33 23.4701 48.6096 23.002 47.8134 22.7083C47.1667 22.4566 46.1967 22.1583 44.4084 22.0766V22.0766ZM34.6584 42.6516C35.9662 43.196 37.4224 43.2695 38.7783 42.8595C40.1342 42.4495 41.3057 41.5815 42.0928 40.4037C42.8798 39.2259 43.2335 37.8114 43.0935 36.4018C42.9535 34.9922 42.3284 33.6749 41.3251 32.675C40.6855 32.0358 39.9121 31.5463 39.0606 31.2419C38.2092 30.9375 37.3008 30.8256 36.4009 30.9143C35.501 31.0031 34.632 31.2903 33.8564 31.7552C33.0808 32.2201 32.418 32.8512 31.9156 33.6031C31.4132 34.3549 31.0837 35.2088 30.9509 36.1033C30.8182 36.9977 30.8853 37.9105 31.1476 38.7758C31.41 39.6412 31.8609 40.4377 32.4679 41.1079C33.075 41.778 33.8231 42.3053 34.6584 42.6516ZM30.3367 30.3366C31.2118 29.4616 32.2506 28.7675 33.3939 28.2939C34.5372 27.8203 35.7626 27.5766 37.0001 27.5766C38.2376 27.5766 39.463 27.8203 40.6062 28.2939C41.7495 28.7675 42.7884 29.4616 43.6634 30.3366C44.5385 31.2117 45.2326 32.2505 45.7061 33.3938C46.1797 34.5371 46.4235 35.7625 46.4235 37C46.4235 38.2375 46.1797 39.4629 45.7061 40.6062C45.2326 41.7494 44.5385 42.7883 43.6634 43.6633C41.8962 45.4305 39.4993 46.4234 37.0001 46.4234C34.5008 46.4234 32.104 45.4305 30.3367 43.6633C28.5695 41.8961 27.5767 39.4992 27.5767 37C27.5767 34.5007 28.5695 32.1039 30.3367 30.3366V30.3366ZM48.5134 28.98C48.7303 28.7754 48.9038 28.5295 49.0239 28.2566C49.144 27.9838 49.2081 27.6896 49.2124 27.3915C49.2168 27.0935 49.1613 26.7976 49.0492 26.5213C48.9372 26.2451 48.7708 25.9942 48.56 25.7834C48.3492 25.5726 48.0983 25.4062 47.8221 25.2942C47.5458 25.1821 47.2499 25.1266 46.9519 25.131C46.6538 25.1353 46.3596 25.1994 46.0868 25.3195C45.8139 25.4395 45.568 25.6131 45.3634 25.83C44.9656 26.2517 44.7478 26.8119 44.7562 27.3915C44.7647 27.9712 44.9987 28.5248 45.4087 28.9347C45.8186 29.3447 46.3722 29.5787 46.9519 29.5871C47.5315 29.5956 48.0917 29.3778 48.5134 28.98V28.98Z" fill="#FDCEAA"/>
</g>
<defs>
<filter id="filter0_i_8_74" x="17" y="17" width="40" height="44" filterUnits="userSpaceOnUse" color-interpolation-filters="sRGB">
<feFlood flood-opacity="0" result="BackgroundImageFix"/>
<feBlend mode="normal" in="SourceGraphic" in2="BackgroundImageFix" result="shape"/>
<feColorMatrix in="SourceAlpha" type="matrix" values="0 0 0 0 0 0 0 0 0 0 0 0 0 0 0 0 0 0 127 0" result="hardAlpha"/>
<feOffset dy="4"/>
<feGaussianBlur stdDeviation="7.5"/>
<feComposite in2="hardAlpha" operator="arithmetic" k2="-1" k3="1"/>
<feColorMatrix type="matrix" values="0 0 0 0 0 0 0 0 0 0 0 0 0 0 0 0 0 0 0.2 0"/>
<feBlend mode="normal" in2="shape" result="effect1_innerShadow_8_74"/>
</filter>
</defs>
</svg>
