<svg width="75" height="75" viewBox="0 0 75 75" fill="none" xmlns="http://www.w3.org/2000/svg">
<rect width="75" height="75" rx="37.5" fill="#27363B"/>
<g filter="url(#filter0_i_8_18)">
<path fill-rule="evenodd" clip-rule="evenodd" d="M29.4416 18.7767C31.3966 18.6867 32.02 18.6667 37 18.6667C41.98 18.6667 42.6033 18.6883 44.5566 18.7767C46.51 18.865 47.8433 19.1767 49.01 19.6283C50.2316 20.09 51.34 20.8117 52.2566 21.745C53.19 22.66 53.91 23.7667 54.37 24.99C54.8233 26.1567 55.1333 27.49 55.2233 29.44C55.3133 31.3983 55.3333 32.0217 55.3333 37C55.3333 41.98 55.3116 42.6033 55.2233 44.5583C55.135 46.5083 54.8233 47.8417 54.37 49.0083C53.9099 50.2318 53.1888 51.3403 52.2566 52.2567C51.34 53.19 50.2316 53.91 49.01 54.37C47.8433 54.8233 46.51 55.1333 44.56 55.2233C42.6033 55.3133 41.98 55.3333 37 55.3333C32.02 55.3333 31.3966 55.3117 29.4416 55.2233C27.4916 55.135 26.1583 54.8233 24.9916 54.37C23.7682 53.9099 22.6597 53.1887 21.7433 52.2567C20.8106 51.3411 20.0888 50.2331 19.6283 49.01C19.1766 47.8433 18.8666 46.51 18.7766 44.56C18.6866 42.6017 18.6666 41.9783 18.6666 37C18.6666 32.02 18.6883 31.3967 18.7766 29.4433C18.865 27.49 19.1766 26.1567 19.6283 24.99C20.0895 23.7668 20.8118 22.6588 21.745 21.7433C22.66 20.8108 23.7674 20.0891 24.99 19.6283C26.1566 19.1767 27.49 18.8667 29.44 18.7767H29.4416ZM44.4083 22.0767C42.475 21.9883 41.895 21.97 37 21.97C32.105 21.97 31.525 21.9883 29.5916 22.0767C27.8033 22.1583 26.8333 22.4567 26.1866 22.7083C25.3316 23.0417 24.72 23.4367 24.0783 24.0783C23.47 24.6701 23.0019 25.3905 22.7083 26.1867C22.4566 26.8333 22.1583 27.8033 22.0766 29.5917C21.9883 31.525 21.97 32.105 21.97 37C21.97 41.895 21.9883 42.475 22.0766 44.4083C22.1583 46.1967 22.4566 47.1667 22.7083 47.8133C23.0016 48.6083 23.47 49.33 24.0783 49.9217C24.67 50.53 25.3916 50.9983 26.1866 51.2917C26.8333 51.5433 27.8033 51.8417 29.5916 51.9233C31.525 52.0117 32.1033 52.03 37 52.03C41.8966 52.03 42.475 52.0117 44.4083 51.9233C46.1966 51.8417 47.1666 51.5433 47.8133 51.2917C48.6683 50.9583 49.28 50.5633 49.9216 49.9217C50.53 49.33 50.9983 48.6083 51.2916 47.8133C51.5433 47.1667 51.8416 46.1967 51.9233 44.4083C52.0116 42.475 52.03 41.895 52.03 37C52.03 32.105 52.0116 31.525 51.9233 29.5917C51.8416 27.8033 51.5433 26.8333 51.2916 26.1867C50.9583 25.3317 50.5633 24.72 49.9216 24.0783C49.3298 23.4701 48.6095 23.002 47.8133 22.7083C47.1666 22.4567 46.1966 22.1583 44.4083 22.0767V22.0767ZM34.6583 42.6517C35.9661 43.196 37.4223 43.2695 38.7782 42.8595C40.1341 42.4495 41.3056 41.5815 42.0926 40.4037C42.8797 39.2259 43.2334 37.8114 43.0934 36.4018C42.9534 34.9922 42.3283 33.6749 41.325 32.675C40.6854 32.0358 39.912 31.5463 39.0605 31.2419C38.209 30.9375 37.3007 30.8256 36.4008 30.9143C35.5009 31.0031 34.6319 31.2903 33.8563 31.7552C33.0807 32.2201 32.4179 32.8512 31.9155 33.6031C31.4131 34.3549 31.0836 35.2088 30.9508 36.1033C30.818 36.9977 30.8852 37.9105 31.1475 38.7758C31.4098 39.6412 31.8608 40.4377 32.4678 41.1079C33.0749 41.778 33.823 42.3053 34.6583 42.6517ZM30.3366 30.3367C31.2117 29.4616 32.2505 28.7675 33.3938 28.2939C34.5371 27.8204 35.7625 27.5766 37 27.5766C38.2375 27.5766 39.4628 27.8204 40.6061 28.2939C41.7494 28.7675 42.7882 29.4616 43.6633 30.3367C44.5383 31.2117 45.2325 32.2505 45.706 33.3938C46.1796 34.5371 46.4233 35.7625 46.4233 37C46.4233 38.2375 46.1796 39.4629 45.706 40.6062C45.2325 41.7495 44.5383 42.7883 43.6633 43.6633C41.8961 45.4305 39.4992 46.4234 37 46.4234C34.5007 46.4234 32.1039 45.4305 30.3366 43.6633C28.5694 41.8961 27.5766 39.4992 27.5766 37C27.5766 34.5008 28.5694 32.1039 30.3366 30.3367V30.3367ZM48.5133 28.98C48.7301 28.7754 48.9037 28.5295 49.0238 28.2566C49.1439 27.9838 49.208 27.6896 49.2123 27.3915C49.2167 27.0935 49.1612 26.7976 49.0491 26.5213C48.937 26.2451 48.7707 25.9942 48.5599 25.7834C48.3491 25.5726 48.0982 25.4062 47.8219 25.2942C47.5457 25.1821 47.2498 25.1266 46.9517 25.131C46.6537 25.1353 46.3595 25.1994 46.0867 25.3195C45.8138 25.4396 45.5678 25.6131 45.3633 25.83C44.9655 26.2517 44.7477 26.8119 44.7561 27.3915C44.7646 27.9712 44.9986 28.5248 45.4086 28.9347C45.8185 29.3447 46.3721 29.5787 46.9517 29.5872C47.5314 29.5956 48.0916 29.3778 48.5133 28.98V28.98Z" fill="#FDCEAA"/>
</g>
<defs>
<filter id="filter0_i_8_18" x="17" y="17" width="40" height="44" filterUnits="userSpaceOnUse" color-interpolation-filters="sRGB">
<feFlood flood-opacity="0" result="BackgroundImageFix"/>
<feBlend mode="normal" in="SourceGraphic" in2="BackgroundImageFix" result="shape"/>
<feColorMatrix in="SourceAlpha" type="matrix" values="0 0 0 0 0 0 0 0 0 0 0 0 0 0 0 0 0 0 127 0" result="hardAlpha"/>
<feOffset dy="4"/>
<feGaussianBlur stdDeviation="7.5"/>
<feComposite in2="hardAlpha" operator="arithmetic" k2="-1" k3="1"/>
<feColorMatrix type="matrix" values="0 0 0 0 0 0 0 0 0 0 0 0 0 0 0 0 0 0 0.2 0"/>
<feBlend mode="normal" in2="shape" result="effect1_innerShadow_8_18"/>
</filter>
</defs>
</svg>
