<svg width="75" height="76" viewBox="0 0 75 76" fill="none" xmlns="http://www.w3.org/2000/svg">
<rect width="75" height="76" rx="37.5" fill="#27363B"/>
<g filter="url(#filter0_i_8_33)">
<path fill-rule="evenodd" clip-rule="evenodd" d="M19.6666 22.73C19.6666 21.9175 19.9894 21.1384 20.5639 20.5639C21.1383 19.9894 21.9175 19.6667 22.73 19.6667H53.2666C53.6693 19.666 54.0681 19.7448 54.4402 19.8984C54.8123 20.0521 55.1505 20.2777 55.4354 20.5622C55.7202 20.8468 55.9462 21.1847 56.1002 21.5567C56.2543 21.9287 56.3335 22.3274 56.3333 22.73V53.2667C56.3337 53.6694 56.2548 54.0682 56.1009 54.4404C55.9471 54.8125 55.7213 55.1507 55.4367 55.4355C55.152 55.7203 54.8139 55.9462 54.4419 56.1003C54.0698 56.2544 53.671 56.3335 53.2683 56.3333H22.73C22.3275 56.3333 21.9291 56.254 21.5573 56.1C21.1855 55.9459 20.8477 55.7201 20.5633 55.4355C20.2788 55.1509 20.0532 54.813 19.8993 54.4411C19.7455 54.0693 19.6664 53.6707 19.6666 53.2683V22.73ZM34.18 33.6467H39.145V36.14C39.8616 34.7067 41.695 33.4167 44.45 33.4167C49.7316 33.4167 50.9833 36.2717 50.9833 41.51V51.2133H45.6383V42.7033C45.6383 39.72 44.9216 38.0367 43.1016 38.0367C40.5766 38.0367 39.5266 39.8517 39.5266 42.7033V51.2133H34.18V33.6467ZM25.0133 50.985H30.36V33.4167H25.0133V50.9833V50.985ZM31.125 27.6867C31.135 28.1444 31.0536 28.5996 30.8854 29.0255C30.7171 29.4514 30.4655 29.8394 30.1453 30.1667C29.8251 30.494 29.4428 30.7541 29.0207 30.9317C28.5986 31.1092 28.1454 31.2007 27.6875 31.2007C27.2296 31.2007 26.7763 31.1092 26.3542 30.9317C25.9321 30.7541 25.5498 30.494 25.2296 30.1667C24.9094 29.8394 24.6578 29.4514 24.4896 29.0255C24.3213 28.5996 24.2399 28.1444 24.25 27.6867C24.2697 26.7881 24.6406 25.933 25.2831 25.3045C25.9256 24.676 26.7887 24.324 27.6875 24.324C28.5863 24.324 29.4493 24.676 30.0918 25.3045C30.7343 25.933 31.1052 26.7881 31.125 27.6867V27.6867Z" fill="#FDCEAA"/>
</g>
<defs>
<filter id="filter0_i_8_33" x="18" y="18" width="40" height="44" filterUnits="userSpaceOnUse" color-interpolation-filters="sRGB">
<feFlood flood-opacity="0" result="BackgroundImageFix"/>
<feBlend mode="normal" in="SourceGraphic" in2="BackgroundImageFix" result="shape"/>
<feColorMatrix in="SourceAlpha" type="matrix" values="0 0 0 0 0 0 0 0 0 0 0 0 0 0 0 0 0 0 127 0" result="hardAlpha"/>
<feOffset dy="4"/>
<feGaussianBlur stdDeviation="7.5"/>
<feComposite in2="hardAlpha" operator="arithmetic" k2="-1" k3="1"/>
<feColorMatrix type="matrix" values="0 0 0 0 0 0 0 0 0 0 0 0 0 0 0 0 0 0 0.2 0"/>
<feBlend mode="normal" in2="shape" result="effect1_innerShadow_8_33"/>
</filter>
</defs>
</svg>
