<svg width="75" height="76" viewBox="0 0 75 76" fill="none" xmlns="http://www.w3.org/2000/svg">
<rect width="75" height="76" rx="37.5" fill="#F4837D"/>
<g filter="url(#filter0_i_8_89)">
<path fill-rule="evenodd" clip-rule="evenodd" d="M19.6667 22.73C19.6667 21.9175 19.9895 21.1384 20.564 20.5639C21.1385 19.9894 21.9176 19.6667 22.7301 19.6667H53.2667C53.6694 19.666 54.0682 19.7448 54.4403 19.8984C54.8125 20.0521 55.1506 20.2777 55.4355 20.5622C55.7204 20.8468 55.9463 21.1847 56.1004 21.5567C56.2544 21.9286 56.3336 22.3274 56.3334 22.73V53.2667C56.3339 53.6694 56.2549 54.0682 56.101 54.4403C55.9472 54.8125 55.7215 55.1507 55.4368 55.4355C55.1521 55.7203 54.8141 55.9462 54.442 56.1003C54.0699 56.2544 53.6711 56.3335 53.2684 56.3333H22.7301C22.3277 56.3333 21.9292 56.254 21.5574 56.1C21.1856 55.9459 20.8479 55.7201 20.5634 55.4355C20.2789 55.1509 20.0533 54.813 19.8995 54.4411C19.7456 54.0693 19.6665 53.6707 19.6667 53.2683V22.73ZM34.1801 33.6467H39.1451V36.14C39.8617 34.7067 41.6951 33.4167 44.4501 33.4167C49.7317 33.4167 50.9834 36.2717 50.9834 41.51V51.2133H45.6384V42.7033C45.6384 39.72 44.9217 38.0367 43.1017 38.0367C40.5767 38.0367 39.5267 39.8517 39.5267 42.7033V51.2133H34.1801V33.6467ZM25.0134 50.985H30.3601V33.4167H25.0134V50.9833V50.985ZM31.1251 27.6867C31.1352 28.1444 31.0537 28.5996 30.8855 29.0255C30.7173 29.4514 30.4657 29.8394 30.1455 30.1667C29.8253 30.494 29.4429 30.7541 29.0208 30.9317C28.5988 31.1092 28.1455 31.2007 27.6876 31.2007C27.2297 31.2007 26.7764 31.1092 26.3543 30.9317C25.9323 30.7541 25.5499 30.494 25.2297 30.1667C24.9095 29.8394 24.6579 29.4514 24.4897 29.0255C24.3215 28.5996 24.24 28.1444 24.2501 27.6867C24.2699 26.7881 24.6407 25.933 25.2832 25.3045C25.9257 24.676 26.7888 24.324 27.6876 24.324C28.5864 24.324 29.4494 24.676 30.0919 25.3045C30.7344 25.933 31.1053 26.7881 31.1251 27.6867V27.6867Z" fill="#FDCEAA"/>
</g>
<defs>
<filter id="filter0_i_8_89" x="18" y="18" width="40" height="44" filterUnits="userSpaceOnUse" color-interpolation-filters="sRGB">
<feFlood flood-opacity="0" result="BackgroundImageFix"/>
<feBlend mode="normal" in="SourceGraphic" in2="BackgroundImageFix" result="shape"/>
<feColorMatrix in="SourceAlpha" type="matrix" values="0 0 0 0 0 0 0 0 0 0 0 0 0 0 0 0 0 0 127 0" result="hardAlpha"/>
<feOffset dy="4"/>
<feGaussianBlur stdDeviation="7.5"/>
<feComposite in2="hardAlpha" operator="arithmetic" k2="-1" k3="1"/>
<feColorMatrix type="matrix" values="0 0 0 0 0 0 0 0 0 0 0 0 0 0 0 0 0 0 0.2 0"/>
<feBlend mode="normal" in2="shape" result="effect1_innerShadow_8_89"/>
</filter>
</defs>
</svg>
