<svg width="76" height="75" viewBox="0 0 76 75" fill="none" xmlns="http://www.w3.org/2000/svg">
<rect width="76" height="75" rx="37.5" fill="#F4837D"/>
<g filter="url(#filter0_i_8_69)">
<path d="M57.4051 27.2283C56.0134 27.845 54.5184 28.2617 52.9468 28.45C54.5684 27.4797 55.7817 25.9524 56.3601 24.1533C54.8365 25.0583 53.169 25.6953 51.4301 26.0367C50.2607 24.7881 48.7119 23.9605 47.024 23.6825C45.3361 23.4044 43.6036 23.6913 42.0955 24.4988C40.5874 25.3062 39.3881 26.5889 38.6837 28.1478C37.9793 29.7067 37.8093 31.4546 38.2001 33.12C35.1129 32.965 32.0928 32.1626 29.3358 30.7648C26.5788 29.3671 24.1465 27.4053 22.1968 25.0067C21.5301 26.1567 21.1468 27.49 21.1468 28.91C21.146 30.1883 21.4608 31.4471 22.0632 32.5746C22.6656 33.702 23.537 34.6634 24.6001 35.3733C23.3672 35.3341 22.1616 35.001 21.0834 34.4017V34.5017C21.0833 36.2946 21.7035 38.0323 22.8387 39.42C23.974 40.8077 25.5544 41.7599 27.3118 42.115C26.1681 42.4245 24.969 42.4701 23.8051 42.2483C24.3009 43.791 25.2668 45.14 26.5674 46.1065C27.868 47.073 29.4383 47.6086 31.0584 47.6383C28.3082 49.7974 24.9116 50.9685 21.4151 50.9633C20.7957 50.9635 20.1769 50.9273 19.5618 50.855C23.1109 53.137 27.2423 54.348 31.4618 54.3433C45.7451 54.3433 53.5534 42.5133 53.5534 32.2533C53.5534 31.92 53.5451 31.5833 53.5301 31.25C55.0489 30.1516 56.36 28.7915 57.4018 27.2333L57.4051 27.2283V27.2283Z" fill="#FDCEAA"/>
</g>
<defs>
<filter id="filter0_i_8_69" x="18" y="19" width="40" height="44" filterUnits="userSpaceOnUse" color-interpolation-filters="sRGB">
<feFlood flood-opacity="0" result="BackgroundImageFix"/>
<feBlend mode="normal" in="SourceGraphic" in2="BackgroundImageFix" result="shape"/>
<feColorMatrix in="SourceAlpha" type="matrix" values="0 0 0 0 0 0 0 0 0 0 0 0 0 0 0 0 0 0 127 0" result="hardAlpha"/>
<feOffset dy="4"/>
<feGaussianBlur stdDeviation="7.5"/>
<feComposite in2="hardAlpha" operator="arithmetic" k2="-1" k3="1"/>
<feColorMatrix type="matrix" values="0 0 0 0 0 0 0 0 0 0 0 0 0 0 0 0 0 0 0.2 0"/>
<feBlend mode="normal" in2="shape" result="effect1_innerShadow_8_69"/>
</filter>
</defs>
</svg>
