<svg width="76" height="75" viewBox="0 0 76 75" fill="none" xmlns="http://www.w3.org/2000/svg">
<rect width="76" height="75" rx="37.5" fill="#27363B"/>
<g filter="url(#filter0_i_8_13)">
<path d="M57.405 27.2283C56.0133 27.845 54.5183 28.2617 52.9466 28.45C54.5683 27.4797 55.7816 25.9524 56.36 24.1533C54.8364 25.0583 53.1689 25.6953 51.43 26.0367C50.2606 24.7881 48.7117 23.9605 47.0239 23.6825C45.336 23.4044 43.6035 23.6913 42.0954 24.4988C40.5873 25.3062 39.3879 26.5889 38.6836 28.1478C37.9792 29.7067 37.8092 31.4546 38.2 33.12C35.1128 32.965 32.0927 32.1626 29.3357 30.7648C26.5787 29.3671 24.1464 27.4053 22.1966 25.0067C21.53 26.1567 21.1466 27.49 21.1466 28.91C21.1459 30.1883 21.4607 31.4471 22.0631 32.5746C22.6655 33.702 23.5369 34.6634 24.6 35.3733C23.3671 35.3341 22.1614 35.001 21.0833 34.4017V34.5017C21.0832 36.2946 21.7034 38.0323 22.8386 39.42C23.9739 40.8077 25.5543 41.7599 27.3116 42.115C26.168 42.4245 24.9689 42.4701 23.805 42.2483C24.3008 43.791 25.2666 45.14 26.5673 46.1065C27.8679 47.073 29.4382 47.6086 31.0583 47.6383C28.308 49.7974 24.9115 50.9685 21.415 50.9633C20.7956 50.9635 20.1768 50.9273 19.5616 50.855C23.1108 53.137 27.2422 54.348 31.4616 54.3433C45.745 54.3433 53.5533 42.5133 53.5533 32.2533C53.5533 31.92 53.545 31.5833 53.53 31.25C55.0488 30.1516 56.3598 28.7915 57.4016 27.2333L57.405 27.2283V27.2283Z" fill="#FDCEAA"/>
</g>
<defs>
<filter id="filter0_i_8_13" x="18" y="19" width="40" height="44" filterUnits="userSpaceOnUse" color-interpolation-filters="sRGB">
<feFlood flood-opacity="0" result="BackgroundImageFix"/>
<feBlend mode="normal" in="SourceGraphic" in2="BackgroundImageFix" result="shape"/>
<feColorMatrix in="SourceAlpha" type="matrix" values="0 0 0 0 0 0 0 0 0 0 0 0 0 0 0 0 0 0 127 0" result="hardAlpha"/>
<feOffset dy="4"/>
<feGaussianBlur stdDeviation="7.5"/>
<feComposite in2="hardAlpha" operator="arithmetic" k2="-1" k3="1"/>
<feColorMatrix type="matrix" values="0 0 0 0 0 0 0 0 0 0 0 0 0 0 0 0 0 0 0.2 0"/>
<feBlend mode="normal" in2="shape" result="effect1_innerShadow_8_13"/>
</filter>
</defs>
</svg>
