<svg width="646" height="98" viewBox="0 0 646 98" fill="none" xmlns="http://www.w3.org/2000/svg">
<rect width="646" height="84" rx="25" fill="#F4837D"/>
<path d="M61.175 36.075C62.1083 36.2417 62.9 36.7333 63.55 37.55C64.2 38.3667 64.525 39.2917 64.525 40.325C64.525 41.2083 64.2917 42.0083 63.825 42.725C63.375 43.425 62.7167 43.9833 61.85 44.4C60.9833 44.8 59.975 45 58.825 45H51.875V27.625H58.5C59.6833 27.625 60.7 27.825 61.55 28.225C62.4 28.625 63.0417 29.1667 63.475 29.85C63.9083 30.5167 64.125 31.2667 64.125 32.1C64.125 33.1 63.8583 33.9333 63.325 34.6C62.7917 35.2667 62.075 35.7583 61.175 36.075ZM54.725 34.925H58.25C59.1833 34.925 59.9083 34.7167 60.425 34.3C60.9583 33.8667 61.225 33.25 61.225 32.45C61.225 31.6667 60.9583 31.0583 60.425 30.625C59.9083 30.175 59.1833 29.95 58.25 29.95H54.725V34.925ZM58.575 42.675C59.5417 42.675 60.3 42.4417 60.85 41.975C61.4 41.5083 61.675 40.8583 61.675 40.025C61.675 39.175 61.3833 38.5 60.8 38C60.2167 37.5 59.4417 37.25 58.475 37.25H54.725V42.675H58.575ZM80.2471 37.775C80.2471 38.2917 80.2137 38.7583 80.1471 39.175H69.6221C69.7054 40.275 70.1137 41.1583 70.8471 41.825C71.5804 42.4917 72.4804 42.825 73.5471 42.825C75.0804 42.825 76.1637 42.1833 76.7971 40.9H79.8721C79.4554 42.1667 78.6971 43.2083 77.5971 44.025C76.5137 44.825 75.1637 45.225 73.5471 45.225C72.2304 45.225 71.0471 44.9333 69.9971 44.35C68.9637 43.75 68.1471 42.9167 67.5471 41.85C66.9637 40.7667 66.6721 39.5167 66.6721 38.1C66.6721 36.6833 66.9554 35.4417 67.5221 34.375C68.1054 33.2917 68.9137 32.4583 69.9471 31.875C70.9971 31.2917 72.1971 31 73.5471 31C74.8471 31 76.0054 31.2833 77.0221 31.85C78.0387 32.4167 78.8304 33.2167 79.3971 34.25C79.9637 35.2667 80.2471 36.4417 80.2471 37.775ZM77.2721 36.875C77.2554 35.825 76.8804 34.9833 76.1471 34.35C75.4137 33.7167 74.5054 33.4 73.4221 33.4C72.4387 33.4 71.5971 33.7167 70.8971 34.35C70.1971 34.9667 69.7804 35.8083 69.6471 36.875H77.2721ZM90.0018 31C91.0851 31 92.0518 31.225 92.9018 31.675C93.7684 32.125 94.4434 32.7917 94.9268 33.675C95.4101 34.5583 95.6518 35.625 95.6518 36.875V45H92.8268V37.3C92.8268 36.0667 92.5184 35.125 91.9018 34.475C91.2851 33.8083 90.4434 33.475 89.3768 33.475C88.3101 33.475 87.4601 33.8083 86.8268 34.475C86.2101 35.125 85.9018 36.0667 85.9018 37.3V45H83.0518V31.225H85.9018V32.8C86.3684 32.2333 86.9601 31.7917 87.6768 31.475C88.4101 31.1583 89.1851 31 90.0018 31ZM100.737 29.4C100.22 29.4 99.7871 29.225 99.4371 28.875C99.0871 28.525 98.9121 28.0917 98.9121 27.575C98.9121 27.0583 99.0871 26.625 99.4371 26.275C99.7871 25.925 100.22 25.75 100.737 25.75C101.237 25.75 101.662 25.925 102.012 26.275C102.362 26.625 102.537 27.0583 102.537 27.575C102.537 28.0917 102.362 28.525 102.012 28.875C101.662 29.225 101.237 29.4 100.737 29.4ZM102.137 47.7C102.137 49.05 101.795 50.025 101.112 50.625C100.445 51.2417 99.4704 51.55 98.1871 51.55H96.7121V49.15H97.6871C98.2704 49.15 98.6788 49.0333 98.9121 48.8C99.1621 48.5833 99.2871 48.2167 99.2871 47.7V31.225H102.137V47.7ZM104.929 38.05C104.929 36.6667 105.212 35.4417 105.779 34.375C106.362 33.3083 107.146 32.4833 108.129 31.9C109.129 31.3 110.229 31 111.429 31C112.512 31 113.454 31.2167 114.254 31.65C115.071 32.0667 115.721 32.5917 116.204 33.225V31.225H119.079V45H116.204V42.95C115.721 43.6 115.062 44.1417 114.229 44.575C113.396 45.0083 112.446 45.225 111.379 45.225C110.196 45.225 109.112 44.925 108.129 44.325C107.146 43.7083 106.362 42.8583 105.779 41.775C105.212 40.675 104.929 39.4333 104.929 38.05ZM116.204 38.1C116.204 37.15 116.004 36.325 115.604 35.625C115.221 34.925 114.712 34.3917 114.079 34.025C113.446 33.6583 112.762 33.475 112.029 33.475C111.296 33.475 110.612 33.6583 109.979 34.025C109.346 34.375 108.829 34.9 108.429 35.6C108.046 36.2833 107.854 37.1 107.854 38.05C107.854 39 108.046 39.8333 108.429 40.55C108.829 41.2667 109.346 41.8167 109.979 42.2C110.629 42.5667 111.312 42.75 112.029 42.75C112.762 42.75 113.446 42.5667 114.079 42.2C114.712 41.8333 115.221 41.3 115.604 40.6C116.004 39.8833 116.204 39.05 116.204 38.1ZM139.497 31C140.581 31 141.547 31.225 142.397 31.675C143.264 32.125 143.939 32.7917 144.422 33.675C144.922 34.5583 145.172 35.625 145.172 36.875V45H142.347V37.3C142.347 36.0667 142.039 35.125 141.422 34.475C140.806 33.8083 139.964 33.475 138.897 33.475C137.831 33.475 136.981 33.8083 136.347 34.475C135.731 35.125 135.422 36.0667 135.422 37.3V45H132.597V37.3C132.597 36.0667 132.289 35.125 131.672 34.475C131.056 33.8083 130.214 33.475 129.147 33.475C128.081 33.475 127.231 33.8083 126.597 34.475C125.981 35.125 125.672 36.0667 125.672 37.3V45H122.822V31.225H125.672V32.8C126.139 32.2333 126.731 31.7917 127.447 31.475C128.164 31.1583 128.931 31 129.747 31C130.847 31 131.831 31.2333 132.697 31.7C133.564 32.1667 134.231 32.8417 134.697 33.725C135.114 32.8917 135.764 32.2333 136.647 31.75C137.531 31.25 138.481 31 139.497 31ZM150.249 29.4C149.732 29.4 149.299 29.225 148.949 28.875C148.599 28.525 148.424 28.0917 148.424 27.575C148.424 27.0583 148.599 26.625 148.949 26.275C149.299 25.925 149.732 25.75 150.249 25.75C150.749 25.75 151.174 25.925 151.524 26.275C151.874 26.625 152.049 27.0583 152.049 27.575C152.049 28.0917 151.874 28.525 151.524 28.875C151.174 29.225 150.749 29.4 150.249 29.4ZM151.649 31.225V45H148.799V31.225H151.649ZM162.341 31C163.424 31 164.391 31.225 165.241 31.675C166.107 32.125 166.782 32.7917 167.266 33.675C167.749 34.5583 167.991 35.625 167.991 36.875V45H165.166V37.3C165.166 36.0667 164.857 35.125 164.241 34.475C163.624 33.8083 162.782 33.475 161.716 33.475C160.649 33.475 159.799 33.8083 159.166 34.475C158.549 35.125 158.241 36.0667 158.241 37.3V45H155.391V31.225H158.241V32.8C158.707 32.2333 159.299 31.7917 160.016 31.475C160.749 31.1583 161.524 31 162.341 31ZM180.97 42.7H186.845V45H178.12V27.625H180.97V42.7ZM201.854 37.775C201.854 38.2917 201.82 38.7583 201.754 39.175H191.229C191.312 40.275 191.72 41.1583 192.454 41.825C193.187 42.4917 194.087 42.825 195.154 42.825C196.687 42.825 197.77 42.1833 198.404 40.9H201.479C201.062 42.1667 200.304 43.2083 199.204 44.025C198.12 44.825 196.77 45.225 195.154 45.225C193.837 45.225 192.654 44.9333 191.604 44.35C190.57 43.75 189.754 42.9167 189.154 41.85C188.57 40.7667 188.279 39.5167 188.279 38.1C188.279 36.6833 188.562 35.4417 189.129 34.375C189.712 33.2917 190.52 32.4583 191.554 31.875C192.604 31.2917 193.804 31 195.154 31C196.454 31 197.612 31.2833 198.629 31.85C199.645 32.4167 200.437 33.2167 201.004 34.25C201.57 35.2667 201.854 36.4417 201.854 37.775ZM198.879 36.875C198.862 35.825 198.487 34.9833 197.754 34.35C197.02 33.7167 196.112 33.4 195.029 33.4C194.045 33.4 193.204 33.7167 192.504 34.35C191.804 34.9667 191.387 35.8083 191.254 36.875H198.879ZM210.433 33.55H207.883V45H205.008V33.55H203.383V31.225H205.008V30.25C205.008 28.6667 205.425 27.5167 206.258 26.8C207.108 26.0667 208.433 25.7 210.233 25.7V28.075C209.367 28.075 208.758 28.2417 208.408 28.575C208.058 28.8917 207.883 29.45 207.883 30.25V31.225H210.433V33.55ZM225.584 37.775C225.584 38.2917 225.551 38.7583 225.484 39.175H214.959C215.042 40.275 215.451 41.1583 216.184 41.825C216.917 42.4917 217.817 42.825 218.884 42.825C220.417 42.825 221.501 42.1833 222.134 40.9H225.209C224.792 42.1667 224.034 43.2083 222.934 44.025C221.851 44.825 220.501 45.225 218.884 45.225C217.567 45.225 216.384 44.9333 215.334 44.35C214.301 43.75 213.484 42.9167 212.884 41.85C212.301 40.7667 212.009 39.5167 212.009 38.1C212.009 36.6833 212.292 35.4417 212.859 34.375C213.442 33.2917 214.251 32.4583 215.284 31.875C216.334 31.2917 217.534 31 218.884 31C220.184 31 221.342 31.2833 222.359 31.85C223.376 32.4167 224.167 33.2167 224.734 34.25C225.301 35.2667 225.584 36.4417 225.584 37.775ZM222.609 36.875C222.592 35.825 222.217 34.9833 221.484 34.35C220.751 33.7167 219.842 33.4 218.759 33.4C217.776 33.4 216.934 33.7167 216.234 34.35C215.534 34.9667 215.117 35.8083 214.984 36.875H222.609ZM231.239 33.275C231.722 32.6083 232.38 32.0667 233.214 31.65C234.064 31.2167 235.005 31 236.039 31C237.255 31 238.355 31.2917 239.339 31.875C240.322 32.4583 241.097 33.2917 241.664 34.375C242.23 35.4417 242.514 36.6667 242.514 38.05C242.514 39.4333 242.23 40.675 241.664 41.775C241.097 42.8583 240.314 43.7083 239.314 44.325C238.33 44.925 237.239 45.225 236.039 45.225C234.972 45.225 234.022 45.0167 233.189 44.6C232.372 44.1833 231.722 43.65 231.239 43V45H228.389V26.5H231.239V33.275ZM239.614 38.05C239.614 37.1 239.414 36.2833 239.014 35.6C238.63 34.9 238.114 34.375 237.464 34.025C236.83 33.6583 236.147 33.475 235.414 33.475C234.697 33.475 234.014 33.6583 233.364 34.025C232.73 34.3917 232.214 34.925 231.814 35.625C231.43 36.325 231.239 37.15 231.239 38.1C231.239 39.05 231.43 39.8833 231.814 40.6C232.214 41.3 232.73 41.8333 233.364 42.2C234.014 42.5667 234.697 42.75 235.414 42.75C236.147 42.75 236.83 42.5667 237.464 42.2C238.114 41.8167 238.63 41.2667 239.014 40.55C239.414 39.8333 239.614 39 239.614 38.05ZM250.657 42.45L254.557 31.225H257.582L252.332 45H248.932L243.707 31.225H246.757L250.657 42.45ZM262.586 33.225C263.003 32.525 263.553 31.9833 264.236 31.6C264.936 31.2 265.761 31 266.711 31V33.95H265.986C264.87 33.95 264.02 34.2333 263.436 34.8C262.87 35.3667 262.586 36.35 262.586 37.75V45H259.736V31.225H262.586V33.225ZM281.956 37.775C281.956 38.2917 281.923 38.7583 281.856 39.175H271.331C271.414 40.275 271.823 41.1583 272.556 41.825C273.289 42.4917 274.189 42.825 275.256 42.825C276.789 42.825 277.873 42.1833 278.506 40.9H281.581C281.164 42.1667 280.406 43.2083 279.306 44.025C278.223 44.825 276.873 45.225 275.256 45.225C273.939 45.225 272.756 44.9333 271.706 44.35C270.673 43.75 269.856 42.9167 269.256 41.85C268.673 40.7667 268.381 39.5167 268.381 38.1C268.381 36.6833 268.664 35.4417 269.231 34.375C269.814 33.2917 270.623 32.4583 271.656 31.875C272.706 31.2917 273.906 31 275.256 31C276.556 31 277.714 31.2833 278.731 31.85C279.748 32.4167 280.539 33.2167 281.106 34.25C281.673 35.2667 281.956 36.4417 281.956 37.775ZM278.981 36.875C278.964 35.825 278.589 34.9833 277.856 34.35C277.123 33.7167 276.214 33.4 275.131 33.4C274.148 33.4 273.306 33.7167 272.606 34.35C271.906 34.9667 271.489 35.8083 271.356 36.875H278.981Z" fill="#FDCEAA"/>
<path d="M156.424 61.098C155.705 61.098 155.061 60.9813 154.492 60.748C153.923 60.5147 153.465 60.1693 153.12 59.712C152.784 59.2547 152.607 58.704 152.588 58.06H155.136C155.173 58.424 155.299 58.704 155.514 58.9C155.729 59.0867 156.009 59.18 156.354 59.18C156.709 59.18 156.989 59.1007 157.194 58.942C157.399 58.774 157.502 58.5453 157.502 58.256C157.502 58.0133 157.418 57.8127 157.25 57.654C157.091 57.4953 156.891 57.3647 156.648 57.262C156.415 57.1593 156.079 57.0427 155.64 56.912C155.005 56.716 154.487 56.52 154.086 56.324C153.685 56.128 153.339 55.8387 153.05 55.456C152.761 55.0733 152.616 54.574 152.616 53.958C152.616 53.0433 152.947 52.3293 153.61 51.816C154.273 51.2933 155.136 51.032 156.2 51.032C157.283 51.032 158.155 51.2933 158.818 51.816C159.481 52.3293 159.835 53.048 159.882 53.972H157.292C157.273 53.6547 157.157 53.4073 156.942 53.23C156.727 53.0433 156.452 52.95 156.116 52.95C155.827 52.95 155.593 53.0293 155.416 53.188C155.239 53.3373 155.15 53.5567 155.15 53.846C155.15 54.1633 155.299 54.4107 155.598 54.588C155.897 54.7653 156.363 54.9567 156.998 55.162C157.633 55.3767 158.146 55.582 158.538 55.778C158.939 55.974 159.285 56.2587 159.574 56.632C159.863 57.0053 160.008 57.486 160.008 58.074C160.008 58.634 159.863 59.1427 159.574 59.6C159.294 60.0573 158.883 60.4213 158.342 60.692C157.801 60.9627 157.161 61.098 156.424 61.098ZM165.037 61.112C164.272 61.112 163.581 60.9487 162.965 60.622C162.359 60.2953 161.878 59.8287 161.523 59.222C161.178 58.6153 161.005 57.906 161.005 57.094C161.005 56.2913 161.183 55.5867 161.537 54.98C161.892 54.364 162.377 53.8927 162.993 53.566C163.609 53.2393 164.3 53.076 165.065 53.076C165.831 53.076 166.521 53.2393 167.137 53.566C167.753 53.8927 168.239 54.364 168.593 54.98C168.948 55.5867 169.125 56.2913 169.125 57.094C169.125 57.8967 168.943 58.606 168.579 59.222C168.225 59.8287 167.735 60.2953 167.109 60.622C166.493 60.9487 165.803 61.112 165.037 61.112ZM165.037 59.04C165.495 59.04 165.882 58.872 166.199 58.536C166.526 58.2 166.689 57.7193 166.689 57.094C166.689 56.4687 166.531 55.988 166.213 55.652C165.905 55.316 165.523 55.148 165.065 55.148C164.599 55.148 164.211 55.316 163.903 55.652C163.595 55.9787 163.441 56.4593 163.441 57.094C163.441 57.7193 163.591 58.2 163.889 58.536C164.197 58.872 164.58 59.04 165.037 59.04ZM174.315 55.176H173.027V61H170.633V55.176H169.765V53.188H170.633V52.964C170.633 52.0027 170.909 51.2747 171.459 50.78C172.01 50.276 172.817 50.024 173.881 50.024C174.059 50.024 174.189 50.0287 174.273 50.038V52.068C173.816 52.04 173.494 52.1053 173.307 52.264C173.121 52.4227 173.027 52.7073 173.027 53.118V53.188H174.315V55.176ZM179.794 58.97V61H178.576C177.708 61 177.032 60.79 176.546 60.37C176.061 59.9407 175.818 59.2453 175.818 58.284V55.176H174.866V53.188H175.818V51.284H178.212V53.188H179.78V55.176H178.212V58.312C178.212 58.5453 178.268 58.7133 178.38 58.816C178.492 58.9187 178.679 58.97 178.94 58.97H179.794ZM192.342 53.188L190.228 61H187.582L186.35 55.932L185.076 61H182.444L180.316 53.188H182.71L183.816 58.774L185.132 53.188H187.666L188.996 58.746L190.088 53.188H192.342ZM192.779 57.08C192.779 56.2773 192.928 55.5727 193.227 54.966C193.535 54.3593 193.95 53.8927 194.473 53.566C194.995 53.2393 195.579 53.076 196.223 53.076C196.773 53.076 197.254 53.188 197.665 53.412C198.085 53.636 198.407 53.93 198.631 54.294V53.188H201.025V61H198.631V59.894C198.397 60.258 198.071 60.552 197.651 60.776C197.24 61 196.759 61.112 196.209 61.112C195.574 61.112 194.995 60.9487 194.473 60.622C193.95 60.286 193.535 59.8147 193.227 59.208C192.928 58.592 192.779 57.8827 192.779 57.08ZM198.631 57.094C198.631 56.4967 198.463 56.0253 198.127 55.68C197.8 55.3347 197.399 55.162 196.923 55.162C196.447 55.162 196.041 55.3347 195.705 55.68C195.378 56.016 195.215 56.4827 195.215 57.08C195.215 57.6773 195.378 58.1533 195.705 58.508C196.041 58.8533 196.447 59.026 196.923 59.026C197.399 59.026 197.8 58.8533 198.127 58.508C198.463 58.1627 198.631 57.6913 198.631 57.094ZM205.151 54.49C205.431 54.0607 205.781 53.7247 206.201 53.482C206.621 53.23 207.087 53.104 207.601 53.104V55.638H206.943C206.345 55.638 205.897 55.7687 205.599 56.03C205.3 56.282 205.151 56.73 205.151 57.374V61H202.757V53.188H205.151V54.49ZM216.109 56.968C216.109 57.192 216.095 57.4253 216.067 57.668H210.649C210.686 58.1533 210.84 58.5267 211.111 58.788C211.391 59.04 211.732 59.166 212.133 59.166C212.73 59.166 213.146 58.914 213.379 58.41H215.927C215.796 58.9233 215.558 59.3853 215.213 59.796C214.877 60.2067 214.452 60.5287 213.939 60.762C213.426 60.9953 212.852 61.112 212.217 61.112C211.452 61.112 210.77 60.9487 210.173 60.622C209.576 60.2953 209.109 59.8287 208.773 59.222C208.437 58.6153 208.269 57.906 208.269 57.094C208.269 56.282 208.432 55.5727 208.759 54.966C209.095 54.3593 209.562 53.8927 210.159 53.566C210.756 53.2393 211.442 53.076 212.217 53.076C212.973 53.076 213.645 53.2347 214.233 53.552C214.821 53.8693 215.278 54.322 215.605 54.91C215.941 55.498 216.109 56.184 216.109 56.968ZM213.659 56.338C213.659 55.9273 213.519 55.6007 213.239 55.358C212.959 55.1153 212.609 54.994 212.189 54.994C211.788 54.994 211.447 55.1107 211.167 55.344C210.896 55.5773 210.728 55.9087 210.663 56.338H213.659ZM222.733 53.09V55.078H225.939V56.926H222.733V59.082H226.359V61H220.339V51.172H226.359V53.09H222.733ZM232.673 53.104C233.588 53.104 234.316 53.4027 234.857 54C235.408 54.588 235.683 55.4 235.683 56.436V61H233.303V56.758C233.303 56.2353 233.168 55.8293 232.897 55.54C232.626 55.2507 232.262 55.106 231.805 55.106C231.348 55.106 230.984 55.2507 230.713 55.54C230.442 55.8293 230.307 56.2353 230.307 56.758V61H227.913V53.188H230.307V54.224C230.55 53.8787 230.876 53.608 231.287 53.412C231.698 53.2067 232.16 53.104 232.673 53.104ZM240.315 53.076C240.865 53.076 241.346 53.188 241.757 53.412C242.177 53.636 242.499 53.93 242.723 54.294V53.188H245.117V60.986C245.117 61.7047 244.972 62.3533 244.683 62.932C244.403 63.52 243.969 63.9867 243.381 64.332C242.802 64.6773 242.079 64.85 241.211 64.85C240.053 64.85 239.115 64.5747 238.397 64.024C237.678 63.4827 237.267 62.7453 237.165 61.812H239.531C239.605 62.1107 239.783 62.344 240.063 62.512C240.343 62.6893 240.688 62.778 241.099 62.778C241.593 62.778 241.985 62.6333 242.275 62.344C242.573 62.064 242.723 61.6113 242.723 60.986V59.88C242.489 60.244 242.167 60.5427 241.757 60.776C241.346 61 240.865 61.112 240.315 61.112C239.671 61.112 239.087 60.9487 238.565 60.622C238.042 60.286 237.627 59.8147 237.319 59.208C237.02 58.592 236.871 57.8827 236.871 57.08C236.871 56.2773 237.02 55.5727 237.319 54.966C237.627 54.3593 238.042 53.8927 238.565 53.566C239.087 53.2393 239.671 53.076 240.315 53.076ZM242.723 57.094C242.723 56.4967 242.555 56.0253 242.219 55.68C241.892 55.3347 241.491 55.162 241.015 55.162C240.539 55.162 240.133 55.3347 239.797 55.68C239.47 56.016 239.307 56.4827 239.307 57.08C239.307 57.6773 239.47 58.1533 239.797 58.508C240.133 58.8533 240.539 59.026 241.015 59.026C241.491 59.026 241.892 58.8533 242.219 58.508C242.555 58.1627 242.723 57.6913 242.723 57.094ZM248.052 52.376C247.632 52.376 247.287 52.2547 247.016 52.012C246.755 51.76 246.624 51.452 246.624 51.088C246.624 50.7147 246.755 50.4067 247.016 50.164C247.287 49.912 247.632 49.786 248.052 49.786C248.463 49.786 248.799 49.912 249.06 50.164C249.331 50.4067 249.466 50.7147 249.466 51.088C249.466 51.452 249.331 51.76 249.06 52.012C248.799 52.2547 248.463 52.376 248.052 52.376ZM249.242 53.188V61H246.848V53.188H249.242ZM255.737 53.104C256.652 53.104 257.38 53.4027 257.921 54C258.472 54.588 258.747 55.4 258.747 56.436V61H256.367V56.758C256.367 56.2353 256.232 55.8293 255.961 55.54C255.691 55.2507 255.327 55.106 254.869 55.106C254.412 55.106 254.048 55.2507 253.777 55.54C253.507 55.8293 253.371 56.2353 253.371 56.758V61H250.977V53.188H253.371V54.224C253.614 53.8787 253.941 53.608 254.351 53.412C254.762 53.2067 255.224 53.104 255.737 53.104ZM267.775 56.968C267.775 57.192 267.761 57.4253 267.733 57.668H262.315C262.352 58.1533 262.506 58.5267 262.777 58.788C263.057 59.04 263.398 59.166 263.799 59.166C264.396 59.166 264.812 58.914 265.045 58.41H267.593C267.462 58.9233 267.224 59.3853 266.879 59.796C266.543 60.2067 266.118 60.5287 265.605 60.762C265.092 60.9953 264.518 61.112 263.883 61.112C263.118 61.112 262.436 60.9487 261.839 60.622C261.242 60.2953 260.775 59.8287 260.439 59.222C260.103 58.6153 259.935 57.906 259.935 57.094C259.935 56.282 260.098 55.5727 260.425 54.966C260.761 54.3593 261.228 53.8927 261.825 53.566C262.422 53.2393 263.108 53.076 263.883 53.076C264.639 53.076 265.311 53.2347 265.899 53.552C266.487 53.8693 266.944 54.322 267.271 54.91C267.607 55.498 267.775 56.184 267.775 56.968ZM265.325 56.338C265.325 55.9273 265.185 55.6007 264.905 55.358C264.625 55.1153 264.275 54.994 263.855 54.994C263.454 54.994 263.113 55.1107 262.833 55.344C262.562 55.5773 262.394 55.9087 262.329 56.338H265.325ZM276.402 56.968C276.402 57.192 276.388 57.4253 276.36 57.668H270.942C270.979 58.1533 271.133 58.5267 271.404 58.788C271.684 59.04 272.025 59.166 272.426 59.166C273.023 59.166 273.439 58.914 273.672 58.41H276.22C276.089 58.9233 275.851 59.3853 275.506 59.796C275.17 60.2067 274.745 60.5287 274.232 60.762C273.719 60.9953 273.145 61.112 272.51 61.112C271.745 61.112 271.063 60.9487 270.466 60.622C269.869 60.2953 269.402 59.8287 269.066 59.222C268.73 58.6153 268.562 57.906 268.562 57.094C268.562 56.282 268.725 55.5727 269.052 54.966C269.388 54.3593 269.855 53.8927 270.452 53.566C271.049 53.2393 271.735 53.076 272.51 53.076C273.266 53.076 273.938 53.2347 274.526 53.552C275.114 53.8693 275.571 54.322 275.898 54.91C276.234 55.498 276.402 56.184 276.402 56.968ZM273.952 56.338C273.952 55.9273 273.812 55.6007 273.532 55.358C273.252 55.1153 272.902 54.994 272.482 54.994C272.081 54.994 271.74 55.1107 271.46 55.344C271.189 55.5773 271.021 55.9087 270.956 56.338H273.952ZM280.059 54.49C280.339 54.0607 280.689 53.7247 281.109 53.482C281.529 53.23 281.996 53.104 282.509 53.104V55.638H281.851C281.254 55.638 280.806 55.7687 280.507 56.03C280.208 56.282 280.059 56.73 280.059 57.374V61H277.665V53.188H280.059V54.49Z" fill="#FDCEAA"/>
<path d="M320.214 28.8213L317.568 39H316.044L313.904 30.5508L311.812 39H310.322L307.629 28.8213H309.017L311.156 37.2842L313.262 28.8213H314.636L316.762 37.3662L318.888 28.8213H320.214ZM327.822 35.3154H322.196C322.196 35.7848 322.267 36.195 322.408 36.5459C322.549 36.8923 322.743 37.1771 322.989 37.4004C323.226 37.6191 323.507 37.7832 323.83 37.8926C324.158 38.002 324.518 38.0566 324.91 38.0566C325.43 38.0566 325.951 37.9541 326.476 37.749C327.004 37.5394 327.38 37.3343 327.604 37.1338H327.672V38.5352C327.239 38.7174 326.797 38.8701 326.346 38.9932C325.895 39.1162 325.421 39.1777 324.924 39.1777C323.657 39.1777 322.668 38.8359 321.957 38.1523C321.246 37.4642 320.891 36.4889 320.891 35.2266C320.891 33.9779 321.23 32.9867 321.909 32.2529C322.593 31.5192 323.491 31.1523 324.603 31.1523C325.632 31.1523 326.425 31.4531 326.981 32.0547C327.542 32.6562 327.822 33.5107 327.822 34.6182V35.3154ZM326.571 34.3311C326.567 33.6566 326.396 33.1348 326.059 32.7656C325.726 32.3965 325.218 32.2119 324.534 32.2119C323.846 32.2119 323.297 32.4147 322.887 32.8203C322.481 33.2259 322.251 33.7295 322.196 34.3311H326.571ZM331.069 39H329.784V28.3633H331.069V39ZM339.259 38.5215C338.83 38.7266 338.423 38.8861 338.035 39C337.652 39.1139 337.244 39.1709 336.812 39.1709C336.26 39.1709 335.754 39.0911 335.294 38.9316C334.834 38.7676 334.439 38.5215 334.111 38.1934C333.779 37.8652 333.521 37.4505 333.339 36.9492C333.157 36.4479 333.065 35.8623 333.065 35.1924C333.065 33.9437 333.407 32.9639 334.091 32.2529C334.779 31.542 335.686 31.1865 336.812 31.1865C337.249 31.1865 337.677 31.248 338.097 31.3711C338.521 31.4941 338.908 31.6445 339.259 31.8223V33.251H339.19C338.799 32.9456 338.393 32.7109 337.974 32.5469C337.559 32.3828 337.153 32.3008 336.757 32.3008C336.028 32.3008 335.451 32.5469 335.027 33.0391C334.608 33.5267 334.398 34.2445 334.398 35.1924C334.398 36.113 334.604 36.8216 335.014 37.3184C335.428 37.8105 336.009 38.0566 336.757 38.0566C337.017 38.0566 337.281 38.0225 337.55 37.9541C337.819 37.8857 338.06 37.7969 338.274 37.6875C338.461 37.5918 338.637 37.4915 338.801 37.3867C338.965 37.2773 339.095 37.1839 339.19 37.1064H339.259V38.5215ZM347.421 35.1855C347.421 36.4297 347.102 37.4118 346.464 38.1318C345.826 38.8519 344.971 39.2119 343.9 39.2119C342.82 39.2119 341.961 38.8519 341.323 38.1318C340.69 37.4118 340.373 36.4297 340.373 35.1855C340.373 33.9414 340.69 32.9593 341.323 32.2393C341.961 31.5146 342.82 31.1523 343.9 31.1523C344.971 31.1523 345.826 31.5146 346.464 32.2393C347.102 32.9593 347.421 33.9414 347.421 35.1855ZM346.095 35.1855C346.095 34.1966 345.901 33.4629 345.514 32.9844C345.126 32.5013 344.589 32.2598 343.9 32.2598C343.203 32.2598 342.661 32.5013 342.273 32.9844C341.891 33.4629 341.699 34.1966 341.699 35.1855C341.699 36.1426 341.893 36.8695 342.28 37.3662C342.668 37.8584 343.208 38.1045 343.9 38.1045C344.584 38.1045 345.119 37.8607 345.507 37.373C345.899 36.8809 346.095 36.1517 346.095 35.1855ZM360.56 39H359.274V34.6523C359.274 34.3242 359.258 34.0075 359.227 33.7021C359.199 33.3968 359.138 33.153 359.042 32.9707C358.937 32.7747 358.787 32.6266 358.591 32.5264C358.395 32.4261 358.112 32.376 357.743 32.376C357.383 32.376 357.023 32.4671 356.663 32.6494C356.303 32.8271 355.943 33.055 355.583 33.333C355.597 33.4378 355.608 33.5609 355.617 33.7021C355.626 33.8389 355.631 33.9756 355.631 34.1123V39H354.346V34.6523C354.346 34.3151 354.33 33.9961 354.298 33.6953C354.271 33.39 354.209 33.1462 354.113 32.9639C354.008 32.7679 353.858 32.6221 353.662 32.5264C353.466 32.4261 353.184 32.376 352.814 32.376C352.464 32.376 352.11 32.4626 351.755 32.6357C351.404 32.8089 351.053 33.0299 350.702 33.2988V39H349.417V31.3643H350.702V32.2119C351.103 31.8792 351.502 31.6195 351.898 31.4326C352.299 31.2458 352.726 31.1523 353.177 31.1523C353.696 31.1523 354.136 31.2617 354.496 31.4805C354.861 31.6992 355.132 32.0023 355.31 32.3896C355.829 31.9521 356.303 31.6377 356.731 31.4463C357.16 31.2503 357.618 31.1523 358.105 31.1523C358.944 31.1523 359.562 31.4076 359.958 31.918C360.359 32.4238 360.56 33.1325 360.56 34.0439V39ZM369.426 35.3154H363.8C363.8 35.7848 363.87 36.195 364.012 36.5459C364.153 36.8923 364.347 37.1771 364.593 37.4004C364.83 37.6191 365.11 37.7832 365.434 37.8926C365.762 38.002 366.122 38.0566 366.514 38.0566C367.033 38.0566 367.555 37.9541 368.079 37.749C368.608 37.5394 368.984 37.3343 369.207 37.1338H369.275V38.5352C368.842 38.7174 368.4 38.8701 367.949 38.9932C367.498 39.1162 367.024 39.1777 366.527 39.1777C365.26 39.1777 364.271 38.8359 363.561 38.1523C362.85 37.4642 362.494 36.4889 362.494 35.2266C362.494 33.9779 362.834 32.9867 363.513 32.2529C364.196 31.5192 365.094 31.1523 366.206 31.1523C367.236 31.1523 368.029 31.4531 368.585 32.0547C369.146 32.6562 369.426 33.5107 369.426 34.6182V35.3154ZM368.175 34.3311C368.17 33.6566 367.999 33.1348 367.662 32.7656C367.329 32.3965 366.821 32.2119 366.138 32.2119C365.45 32.2119 364.9 32.4147 364.49 32.8203C364.085 33.2259 363.854 33.7295 363.8 34.3311H368.175ZM382.804 35.1855C382.804 36.4297 382.485 37.4118 381.847 38.1318C381.209 38.8519 380.354 39.2119 379.283 39.2119C378.203 39.2119 377.344 38.8519 376.706 38.1318C376.073 37.4118 375.756 36.4297 375.756 35.1855C375.756 33.9414 376.073 32.9593 376.706 32.2393C377.344 31.5146 378.203 31.1523 379.283 31.1523C380.354 31.1523 381.209 31.5146 381.847 32.2393C382.485 32.9593 382.804 33.9414 382.804 35.1855ZM381.478 35.1855C381.478 34.1966 381.284 33.4629 380.896 32.9844C380.509 32.5013 379.971 32.2598 379.283 32.2598C378.586 32.2598 378.044 32.5013 377.656 32.9844C377.273 33.4629 377.082 34.1966 377.082 35.1855C377.082 36.1426 377.276 36.8695 377.663 37.3662C378.05 37.8584 378.59 38.1045 379.283 38.1045C379.967 38.1045 380.502 37.8607 380.89 37.373C381.282 36.8809 381.478 36.1517 381.478 35.1855ZM391.185 39H389.899V34.6523C389.899 34.3014 389.879 33.9733 389.838 33.668C389.797 33.3581 389.722 33.1165 389.612 32.9434C389.498 32.752 389.334 32.6107 389.12 32.5195C388.906 32.4238 388.628 32.376 388.286 32.376C387.935 32.376 387.568 32.4626 387.186 32.6357C386.803 32.8089 386.436 33.0299 386.085 33.2988V39H384.8V31.3643H386.085V32.2119C386.486 31.8792 386.901 31.6195 387.329 31.4326C387.757 31.2458 388.197 31.1523 388.648 31.1523C389.473 31.1523 390.102 31.4007 390.535 31.8975C390.968 32.3942 391.185 33.1097 391.185 34.0439V39ZM409.724 39H408.438V34.6523C408.438 34.3242 408.423 34.0075 408.391 33.7021C408.363 33.3968 408.302 33.153 408.206 32.9707C408.101 32.7747 407.951 32.6266 407.755 32.5264C407.559 32.4261 407.276 32.376 406.907 32.376C406.547 32.376 406.187 32.4671 405.827 32.6494C405.467 32.8271 405.107 33.055 404.747 33.333C404.761 33.4378 404.772 33.5609 404.781 33.7021C404.79 33.8389 404.795 33.9756 404.795 34.1123V39H403.51V34.6523C403.51 34.3151 403.494 33.9961 403.462 33.6953C403.435 33.39 403.373 33.1462 403.277 32.9639C403.173 32.7679 403.022 32.6221 402.826 32.5264C402.63 32.4261 402.348 32.376 401.979 32.376C401.628 32.376 401.274 32.4626 400.919 32.6357C400.568 32.8089 400.217 33.0299 399.866 33.2988V39H398.581V31.3643H399.866V32.2119C400.267 31.8792 400.666 31.6195 401.062 31.4326C401.464 31.2458 401.89 31.1523 402.341 31.1523C402.86 31.1523 403.3 31.2617 403.66 31.4805C404.025 31.6992 404.296 32.0023 404.474 32.3896C404.993 31.9521 405.467 31.6377 405.896 31.4463C406.324 31.2503 406.782 31.1523 407.27 31.1523C408.108 31.1523 408.726 31.4076 409.122 31.918C409.523 32.4238 409.724 33.1325 409.724 34.0439V39ZM418.665 31.3643L414.208 41.8164H412.834L414.256 38.6309L411.214 31.3643H412.608L414.953 37.0244L417.318 31.3643H418.665ZM434.873 31.3643L432.884 39H431.694L429.732 33.1143L427.784 39H426.602L424.592 31.3643H425.932L427.333 37.2773L429.24 31.3643H430.3L432.255 37.2773L433.581 31.3643H434.873ZM443.117 35.3154H437.491C437.491 35.7848 437.562 36.195 437.703 36.5459C437.844 36.8923 438.038 37.1771 438.284 37.4004C438.521 37.6191 438.801 37.7832 439.125 37.8926C439.453 38.002 439.813 38.0566 440.205 38.0566C440.725 38.0566 441.246 37.9541 441.771 37.749C442.299 37.5394 442.675 37.3343 442.898 37.1338H442.967V38.5352C442.534 38.7174 442.092 38.8701 441.641 38.9932C441.189 39.1162 440.715 39.1777 440.219 39.1777C438.952 39.1777 437.963 38.8359 437.252 38.1523C436.541 37.4642 436.186 36.4889 436.186 35.2266C436.186 33.9779 436.525 32.9867 437.204 32.2529C437.888 31.5192 438.785 31.1523 439.897 31.1523C440.927 31.1523 441.72 31.4531 442.276 32.0547C442.837 32.6562 443.117 33.5107 443.117 34.6182V35.3154ZM441.866 34.3311C441.862 33.6566 441.691 33.1348 441.354 32.7656C441.021 32.3965 440.513 32.2119 439.829 32.2119C439.141 32.2119 438.592 32.4147 438.182 32.8203C437.776 33.2259 437.546 33.7295 437.491 34.3311H441.866ZM451.785 35.124C451.785 35.762 451.694 36.3363 451.512 36.8467C451.334 37.3571 451.092 37.7855 450.787 38.1318C450.464 38.4919 450.108 38.763 449.721 38.9453C449.333 39.123 448.907 39.2119 448.442 39.2119C448.009 39.2119 447.631 39.1595 447.308 39.0547C446.984 38.9544 446.665 38.8177 446.351 38.6445L446.269 39H445.065V28.3633H446.351V32.1641C446.711 31.8678 447.093 31.6263 447.499 31.4395C447.905 31.248 448.36 31.1523 448.866 31.1523C449.769 31.1523 450.479 31.4987 450.999 32.1914C451.523 32.8841 451.785 33.8617 451.785 35.124ZM450.459 35.1582C450.459 34.2467 450.309 33.5563 450.008 33.0869C449.707 32.613 449.222 32.376 448.552 32.376C448.178 32.376 447.8 32.458 447.417 32.6221C447.034 32.7816 446.679 32.9889 446.351 33.2441V37.6191C446.715 37.7832 447.027 37.8971 447.287 37.9609C447.551 38.0247 447.85 38.0566 448.183 38.0566C448.894 38.0566 449.45 37.8242 449.851 37.3594C450.256 36.89 450.459 36.1562 450.459 35.1582ZM459.243 36.7988C459.243 37.4961 458.954 38.068 458.375 38.5146C457.801 38.9613 457.015 39.1846 456.017 39.1846C455.451 39.1846 454.932 39.1185 454.458 38.9863C453.989 38.8496 453.594 38.7015 453.275 38.542V37.0996H453.344C453.749 37.4049 454.201 37.6488 454.697 37.8311C455.194 38.0088 455.67 38.0977 456.126 38.0977C456.691 38.0977 457.133 38.0065 457.452 37.8242C457.771 37.6419 457.931 37.3548 457.931 36.9629C457.931 36.6621 457.844 36.4342 457.671 36.2793C457.498 36.1243 457.165 35.9922 456.673 35.8828C456.491 35.8418 456.251 35.7939 455.955 35.7393C455.663 35.6846 455.397 35.6253 455.155 35.5615C454.485 35.3838 454.009 35.124 453.727 34.7822C453.449 34.4359 453.31 34.012 453.31 33.5107C453.31 33.1963 453.373 32.9001 453.501 32.6221C453.633 32.3441 453.831 32.0957 454.096 31.877C454.351 31.6628 454.674 31.4941 455.066 31.3711C455.463 31.2435 455.905 31.1797 456.393 31.1797C456.848 31.1797 457.309 31.2367 457.773 31.3506C458.243 31.46 458.632 31.5944 458.942 31.7539V33.1279H458.874C458.546 32.8864 458.147 32.6836 457.678 32.5195C457.208 32.3509 456.748 32.2666 456.297 32.2666C455.827 32.2666 455.431 32.3577 455.107 32.54C454.784 32.7178 454.622 32.9844 454.622 33.3398C454.622 33.6543 454.72 33.8913 454.916 34.0508C455.107 34.2103 455.417 34.3402 455.846 34.4404C456.083 34.4951 456.347 34.5498 456.639 34.6045C456.935 34.6592 457.181 34.7093 457.377 34.7549C457.974 34.8916 458.434 35.1263 458.758 35.459C459.081 35.7962 459.243 36.2428 459.243 36.7988ZM462.47 30.0859H461.021V28.7529H462.47V30.0859ZM462.388 39H461.103V31.3643H462.388V39ZM468.896 38.9316C468.654 38.9954 468.39 39.0479 468.103 39.0889C467.82 39.1299 467.567 39.1504 467.344 39.1504C466.564 39.1504 465.972 38.9408 465.566 38.5215C465.161 38.1022 464.958 37.43 464.958 36.5049V32.4443H464.09V31.3643H464.958V29.1699H466.243V31.3643H468.896V32.4443H466.243V35.9238C466.243 36.3249 466.252 36.6393 466.271 36.8672C466.289 37.0905 466.353 37.3001 466.462 37.4961C466.562 37.6784 466.699 37.8128 466.872 37.8994C467.05 37.9814 467.319 38.0225 467.679 38.0225C467.888 38.0225 468.107 37.9928 468.335 37.9336C468.563 37.8698 468.727 37.8174 468.827 37.7764H468.896V38.9316ZM476.846 35.3154H471.22C471.22 35.7848 471.29 36.195 471.432 36.5459C471.573 36.8923 471.767 37.1771 472.013 37.4004C472.25 37.6191 472.53 37.7832 472.854 37.8926C473.182 38.002 473.542 38.0566 473.934 38.0566C474.453 38.0566 474.975 37.9541 475.499 37.749C476.028 37.5394 476.404 37.3343 476.627 37.1338H476.695V38.5352C476.262 38.7174 475.82 38.8701 475.369 38.9932C474.918 39.1162 474.444 39.1777 473.947 39.1777C472.68 39.1777 471.691 38.8359 470.98 38.1523C470.27 37.4642 469.914 36.4889 469.914 35.2266C469.914 33.9779 470.254 32.9867 470.933 32.2529C471.616 31.5192 472.514 31.1523 473.626 31.1523C474.656 31.1523 475.449 31.4531 476.005 32.0547C476.565 32.6562 476.846 33.5107 476.846 34.6182V35.3154ZM475.595 34.3311C475.59 33.6566 475.419 33.1348 475.082 32.7656C474.749 32.3965 474.241 32.2119 473.558 32.2119C472.869 32.2119 472.32 32.4147 471.91 32.8203C471.505 33.2259 471.274 33.7295 471.22 34.3311H475.595ZM493.32 31.3643L491.331 39H490.142L488.18 33.1143L486.231 39H485.049L483.039 31.3643H484.379L485.78 37.2773L487.688 31.3643H488.747L490.702 37.2773L492.028 31.3643H493.32ZM501.564 35.3154H495.938C495.938 35.7848 496.009 36.195 496.15 36.5459C496.292 36.8923 496.485 37.1771 496.731 37.4004C496.968 37.6191 497.249 37.7832 497.572 37.8926C497.9 38.002 498.26 38.0566 498.652 38.0566C499.172 38.0566 499.694 37.9541 500.218 37.749C500.746 37.5394 501.122 37.3343 501.346 37.1338H501.414V38.5352C500.981 38.7174 500.539 38.8701 500.088 38.9932C499.637 39.1162 499.163 39.1777 498.666 39.1777C497.399 39.1777 496.41 38.8359 495.699 38.1523C494.988 37.4642 494.633 36.4889 494.633 35.2266C494.633 33.9779 494.972 32.9867 495.651 32.2529C496.335 31.5192 497.233 31.1523 498.345 31.1523C499.375 31.1523 500.168 31.4531 500.724 32.0547C501.284 32.6562 501.564 33.5107 501.564 34.6182V35.3154ZM500.313 34.3311C500.309 33.6566 500.138 33.1348 499.801 32.7656C499.468 32.3965 498.96 32.2119 498.276 32.2119C497.588 32.2119 497.039 32.4147 496.629 32.8203C496.223 33.2259 495.993 33.7295 495.938 34.3311H500.313ZM508.277 32.7656H508.209C508.018 32.7201 507.831 32.6882 507.648 32.6699C507.471 32.6471 507.259 32.6357 507.013 32.6357C506.616 32.6357 506.233 32.7246 505.864 32.9023C505.495 33.0755 505.14 33.3011 504.798 33.5791V39H503.513V31.3643H504.798V32.4922C505.308 32.082 505.757 31.7926 506.145 31.624C506.536 31.4508 506.935 31.3643 507.341 31.3643C507.564 31.3643 507.726 31.3711 507.826 31.3848C507.926 31.3939 508.077 31.4144 508.277 31.4463V32.7656ZM515.879 35.3154H510.253C510.253 35.7848 510.324 36.195 510.465 36.5459C510.606 36.8923 510.8 37.1771 511.046 37.4004C511.283 37.6191 511.563 37.7832 511.887 37.8926C512.215 38.002 512.575 38.0566 512.967 38.0566C513.486 38.0566 514.008 37.9541 514.532 37.749C515.061 37.5394 515.437 37.3343 515.66 37.1338H515.729V38.5352C515.296 38.7174 514.854 38.8701 514.402 38.9932C513.951 39.1162 513.477 39.1777 512.98 39.1777C511.714 39.1777 510.725 38.8359 510.014 38.1523C509.303 37.4642 508.947 36.4889 508.947 35.2266C508.947 33.9779 509.287 32.9867 509.966 32.2529C510.649 31.5192 511.547 31.1523 512.659 31.1523C513.689 31.1523 514.482 31.4531 515.038 32.0547C515.599 32.6562 515.879 33.5107 515.879 34.6182V35.3154ZM514.628 34.3311C514.623 33.6566 514.452 33.1348 514.115 32.7656C513.783 32.3965 513.274 32.2119 512.591 32.2119C511.903 32.2119 511.354 32.4147 510.943 32.8203C510.538 33.2259 510.308 33.7295 510.253 34.3311H514.628ZM529.353 31.3643L524.896 41.8164H523.521L524.943 38.6309L521.901 31.3643H523.296L525.641 37.0244L528.006 31.3643H529.353ZM537.419 35.1855C537.419 36.4297 537.1 37.4118 536.462 38.1318C535.824 38.8519 534.969 39.2119 533.898 39.2119C532.818 39.2119 531.959 38.8519 531.321 38.1318C530.688 37.4118 530.371 36.4297 530.371 35.1855C530.371 33.9414 530.688 32.9593 531.321 32.2393C531.959 31.5146 532.818 31.1523 533.898 31.1523C534.969 31.1523 535.824 31.5146 536.462 32.2393C537.1 32.9593 537.419 33.9414 537.419 35.1855ZM536.093 35.1855C536.093 34.1966 535.899 33.4629 535.512 32.9844C535.124 32.5013 534.587 32.2598 533.898 32.2598C533.201 32.2598 532.659 32.5013 532.271 32.9844C531.889 33.4629 531.697 34.1966 531.697 35.1855C531.697 36.1426 531.891 36.8695 532.278 37.3662C532.666 37.8584 533.206 38.1045 533.898 38.1045C534.582 38.1045 535.118 37.8607 535.505 37.373C535.897 36.8809 536.093 36.1517 536.093 35.1855ZM545.745 39H544.46V38.1523C544.027 38.4941 543.612 38.7562 543.216 38.9385C542.819 39.1208 542.382 39.2119 541.903 39.2119C541.101 39.2119 540.477 38.9681 540.03 38.4805C539.584 37.9883 539.36 37.2682 539.36 36.3203V31.3643H540.646V35.7119C540.646 36.0993 540.664 36.432 540.7 36.71C540.737 36.9834 540.814 37.2181 540.933 37.4141C541.056 37.6146 541.215 37.7604 541.411 37.8516C541.607 37.9427 541.892 37.9883 542.266 37.9883C542.598 37.9883 542.961 37.9017 543.353 37.7285C543.749 37.5553 544.118 37.3343 544.46 37.0654V31.3643H545.745V39ZM559.581 39H558.296V34.6523C558.296 34.3014 558.275 33.9733 558.234 33.668C558.193 33.3581 558.118 33.1165 558.009 32.9434C557.895 32.752 557.731 32.6107 557.517 32.5195C557.302 32.4238 557.024 32.376 556.683 32.376C556.332 32.376 555.965 32.4626 555.582 32.6357C555.199 32.8089 554.832 33.0299 554.481 33.2988V39H553.196V28.3633H554.481V32.2119C554.882 31.8792 555.297 31.6195 555.726 31.4326C556.154 31.2458 556.594 31.1523 557.045 31.1523C557.87 31.1523 558.499 31.4007 558.932 31.8975C559.365 32.3942 559.581 33.1097 559.581 34.0439V39ZM567.989 39H566.711V38.1865C566.597 38.264 566.442 38.3734 566.246 38.5146C566.055 38.6514 565.868 38.7607 565.686 38.8428C565.471 38.9476 565.225 39.0342 564.947 39.1025C564.669 39.1755 564.343 39.2119 563.97 39.2119C563.282 39.2119 562.698 38.984 562.22 38.5283C561.741 38.0726 561.502 37.4915 561.502 36.7852C561.502 36.2064 561.625 35.7393 561.871 35.3838C562.122 35.0238 562.477 34.7412 562.938 34.5361C563.402 34.3311 563.961 34.1921 564.612 34.1191C565.264 34.0462 565.964 33.9915 566.711 33.9551V33.7568C566.711 33.4652 566.659 33.2236 566.554 33.0322C566.453 32.8408 566.308 32.6904 566.116 32.5811C565.934 32.4762 565.715 32.4056 565.46 32.3691C565.205 32.3327 564.938 32.3145 564.66 32.3145C564.323 32.3145 563.947 32.36 563.532 32.4512C563.118 32.5378 562.689 32.6654 562.247 32.834H562.179V31.5283C562.429 31.46 562.792 31.3848 563.266 31.3027C563.74 31.2207 564.207 31.1797 564.667 31.1797C565.205 31.1797 565.672 31.2253 566.068 31.3164C566.469 31.403 566.816 31.5534 567.107 31.7676C567.395 31.9772 567.613 32.2484 567.764 32.5811C567.914 32.9137 567.989 33.3262 567.989 33.8184V39ZM566.711 37.1201V34.9941C566.319 35.0169 565.856 35.0511 565.323 35.0967C564.795 35.1423 564.375 35.2083 564.065 35.2949C563.696 35.3997 563.398 35.5638 563.17 35.7871C562.942 36.0059 562.828 36.3089 562.828 36.6963C562.828 37.1338 562.96 37.4642 563.225 37.6875C563.489 37.9062 563.892 38.0156 564.435 38.0156C564.886 38.0156 565.298 37.929 565.672 37.7559C566.046 37.5781 566.392 37.3662 566.711 37.1201ZM576.958 31.3643L573.868 39H572.576L569.507 31.3643H570.901L573.267 37.4414L575.611 31.3643H576.958ZM584.908 35.3154H579.282C579.282 35.7848 579.353 36.195 579.494 36.5459C579.635 36.8923 579.829 37.1771 580.075 37.4004C580.312 37.6191 580.592 37.7832 580.916 37.8926C581.244 38.002 581.604 38.0566 581.996 38.0566C582.516 38.0566 583.037 37.9541 583.562 37.749C584.09 37.5394 584.466 37.3343 584.689 37.1338H584.758V38.5352C584.325 38.7174 583.883 38.8701 583.432 38.9932C582.98 39.1162 582.507 39.1777 582.01 39.1777C580.743 39.1777 579.754 38.8359 579.043 38.1523C578.332 37.4642 577.977 36.4889 577.977 35.2266C577.977 33.9779 578.316 32.9867 578.995 32.2529C579.679 31.5192 580.576 31.1523 581.688 31.1523C582.718 31.1523 583.511 31.4531 584.067 32.0547C584.628 32.6562 584.908 33.5107 584.908 34.6182V35.3154ZM583.657 34.3311C583.653 33.6566 583.482 33.1348 583.145 32.7656C582.812 32.3965 582.304 32.2119 581.62 32.2119C580.932 32.2119 580.383 32.4147 579.973 32.8203C579.567 33.2259 579.337 33.7295 579.282 34.3311H583.657ZM314.198 56H312.92V55.1865C312.806 55.264 312.651 55.3734 312.455 55.5146C312.264 55.6514 312.077 55.7607 311.895 55.8428C311.68 55.9476 311.434 56.0342 311.156 56.1025C310.878 56.1755 310.552 56.2119 310.179 56.2119C309.491 56.2119 308.907 55.984 308.429 55.5283C307.95 55.0726 307.711 54.4915 307.711 53.7852C307.711 53.2064 307.834 52.7393 308.08 52.3838C308.331 52.0238 308.686 51.7412 309.146 51.5361C309.611 51.3311 310.17 51.1921 310.821 51.1191C311.473 51.0462 312.173 50.9915 312.92 50.9551V50.7568C312.92 50.4652 312.868 50.2236 312.763 50.0322C312.662 49.8408 312.517 49.6904 312.325 49.5811C312.143 49.4762 311.924 49.4056 311.669 49.3691C311.414 49.3327 311.147 49.3145 310.869 49.3145C310.532 49.3145 310.156 49.36 309.741 49.4512C309.326 49.5378 308.898 49.6654 308.456 49.834H308.388V48.5283C308.638 48.46 309.001 48.3848 309.475 48.3027C309.949 48.2207 310.416 48.1797 310.876 48.1797C311.414 48.1797 311.881 48.2253 312.277 48.3164C312.678 48.403 313.025 48.5534 313.316 48.7676C313.604 48.9772 313.822 49.2484 313.973 49.5811C314.123 49.9137 314.198 50.3262 314.198 50.8184V56ZM312.92 54.1201V51.9941C312.528 52.0169 312.065 52.0511 311.532 52.0967C311.004 52.1423 310.584 52.2083 310.274 52.2949C309.905 52.3997 309.607 52.5638 309.379 52.7871C309.151 53.0059 309.037 53.3089 309.037 53.6963C309.037 54.1338 309.169 54.4642 309.434 54.6875C309.698 54.9062 310.101 55.0156 310.644 55.0156C311.095 55.0156 311.507 54.929 311.881 54.7559C312.255 54.5781 312.601 54.3662 312.92 54.1201ZM322.319 55.5215C321.891 55.7266 321.483 55.8861 321.096 56C320.713 56.1139 320.305 56.1709 319.872 56.1709C319.321 56.1709 318.815 56.0911 318.354 55.9316C317.894 55.7676 317.5 55.5215 317.172 55.1934C316.839 54.8652 316.582 54.4505 316.399 53.9492C316.217 53.4479 316.126 52.8623 316.126 52.1924C316.126 50.9437 316.468 49.9639 317.151 49.2529C317.84 48.542 318.746 48.1865 319.872 48.1865C320.31 48.1865 320.738 48.248 321.157 48.3711C321.581 48.4941 321.968 48.6445 322.319 48.8223V50.251H322.251C321.859 49.9456 321.453 49.7109 321.034 49.5469C320.619 49.3828 320.214 49.3008 319.817 49.3008C319.088 49.3008 318.512 49.5469 318.088 50.0391C317.669 50.5267 317.459 51.2445 317.459 52.1924C317.459 53.113 317.664 53.8216 318.074 54.3184C318.489 54.8105 319.07 55.0566 319.817 55.0566C320.077 55.0566 320.341 55.0225 320.61 54.9541C320.879 54.8857 321.121 54.7969 321.335 54.6875C321.522 54.5918 321.697 54.4915 321.861 54.3867C322.025 54.2773 322.155 54.1839 322.251 54.1064H322.319V55.5215ZM329.62 55.5215C329.192 55.7266 328.784 55.8861 328.396 56C328.014 56.1139 327.606 56.1709 327.173 56.1709C326.621 56.1709 326.116 56.0911 325.655 55.9316C325.195 55.7676 324.801 55.5215 324.473 55.1934C324.14 54.8652 323.882 54.4505 323.7 53.9492C323.518 53.4479 323.427 52.8623 323.427 52.1924C323.427 50.9437 323.769 49.9639 324.452 49.2529C325.14 48.542 326.047 48.1865 327.173 48.1865C327.61 48.1865 328.039 48.248 328.458 48.3711C328.882 48.4941 329.269 48.6445 329.62 48.8223V50.251H329.552C329.16 49.9456 328.754 49.7109 328.335 49.5469C327.92 49.3828 327.515 49.3008 327.118 49.3008C326.389 49.3008 325.812 49.5469 325.389 50.0391C324.969 50.5267 324.76 51.2445 324.76 52.1924C324.76 53.113 324.965 53.8216 325.375 54.3184C325.79 54.8105 326.371 55.0566 327.118 55.0566C327.378 55.0566 327.642 55.0225 327.911 54.9541C328.18 54.8857 328.422 54.7969 328.636 54.6875C328.823 54.5918 328.998 54.4915 329.162 54.3867C329.326 54.2773 329.456 54.1839 329.552 54.1064H329.62V55.5215ZM337.666 52.3154H332.04C332.04 52.7848 332.111 53.195 332.252 53.5459C332.393 53.8923 332.587 54.1771 332.833 54.4004C333.07 54.6191 333.35 54.7832 333.674 54.8926C334.002 55.002 334.362 55.0566 334.754 55.0566C335.273 55.0566 335.795 54.9541 336.319 54.749C336.848 54.5394 337.224 54.3343 337.447 54.1338H337.516V55.5352C337.083 55.7174 336.641 55.8701 336.189 55.9932C335.738 56.1162 335.264 56.1777 334.768 56.1777C333.501 56.1777 332.512 55.8359 331.801 55.1523C331.09 54.4642 330.734 53.4889 330.734 52.2266C330.734 50.9779 331.074 49.9867 331.753 49.2529C332.437 48.5192 333.334 48.1523 334.446 48.1523C335.476 48.1523 336.269 48.4531 336.825 49.0547C337.386 49.6562 337.666 50.5107 337.666 51.6182V52.3154ZM336.415 51.3311C336.41 50.6566 336.24 50.1348 335.902 49.7656C335.57 49.3965 335.062 49.2119 334.378 49.2119C333.69 49.2119 333.141 49.4147 332.73 49.8203C332.325 50.2259 332.095 50.7295 332.04 51.3311H336.415ZM345.069 53.7988C345.069 54.4961 344.78 55.068 344.201 55.5146C343.627 55.9613 342.841 56.1846 341.843 56.1846C341.278 56.1846 340.758 56.1185 340.284 55.9863C339.815 55.8496 339.421 55.7015 339.102 55.542V54.0996H339.17C339.576 54.4049 340.027 54.6488 340.523 54.8311C341.02 55.0088 341.496 55.0977 341.952 55.0977C342.517 55.0977 342.959 55.0065 343.278 54.8242C343.597 54.6419 343.757 54.3548 343.757 53.9629C343.757 53.6621 343.67 53.4342 343.497 53.2793C343.324 53.1243 342.991 52.9922 342.499 52.8828C342.317 52.8418 342.077 52.7939 341.781 52.7393C341.49 52.6846 341.223 52.6253 340.981 52.5615C340.312 52.3838 339.835 52.124 339.553 51.7822C339.275 51.4359 339.136 51.012 339.136 50.5107C339.136 50.1963 339.2 49.9001 339.327 49.6221C339.459 49.3441 339.658 49.0957 339.922 48.877C340.177 48.6628 340.501 48.4941 340.893 48.3711C341.289 48.2435 341.731 48.1797 342.219 48.1797C342.674 48.1797 343.135 48.2367 343.6 48.3506C344.069 48.46 344.459 48.5944 344.769 48.7539V50.1279H344.7C344.372 49.8864 343.973 49.6836 343.504 49.5195C343.035 49.3509 342.574 49.2666 342.123 49.2666C341.654 49.2666 341.257 49.3577 340.934 49.54C340.61 49.7178 340.448 49.9844 340.448 50.3398C340.448 50.6543 340.546 50.8913 340.742 51.0508C340.934 51.2103 341.243 51.3402 341.672 51.4404C341.909 51.4951 342.173 51.5498 342.465 51.6045C342.761 51.6592 343.007 51.7093 343.203 51.7549C343.8 51.8916 344.26 52.1263 344.584 52.459C344.908 52.7962 345.069 53.2428 345.069 53.7988ZM352.37 53.7988C352.37 54.4961 352.081 55.068 351.502 55.5146C350.928 55.9613 350.142 56.1846 349.144 56.1846C348.578 56.1846 348.059 56.1185 347.585 55.9863C347.116 55.8496 346.721 55.7015 346.402 55.542V54.0996H346.471C346.876 54.4049 347.327 54.6488 347.824 54.8311C348.321 55.0088 348.797 55.0977 349.253 55.0977C349.818 55.0977 350.26 55.0065 350.579 54.8242C350.898 54.6419 351.058 54.3548 351.058 53.9629C351.058 53.6621 350.971 53.4342 350.798 53.2793C350.625 53.1243 350.292 52.9922 349.8 52.8828C349.618 52.8418 349.378 52.7939 349.082 52.7393C348.79 52.6846 348.524 52.6253 348.282 52.5615C347.612 52.3838 347.136 52.124 346.854 51.7822C346.576 51.4359 346.437 51.012 346.437 50.5107C346.437 50.1963 346.5 49.9001 346.628 49.6221C346.76 49.3441 346.958 49.0957 347.223 48.877C347.478 48.6628 347.801 48.4941 348.193 48.3711C348.59 48.2435 349.032 48.1797 349.52 48.1797C349.975 48.1797 350.436 48.2367 350.9 48.3506C351.37 48.46 351.759 48.5944 352.069 48.7539V50.1279H352.001C351.673 49.8864 351.274 49.6836 350.805 49.5195C350.335 49.3509 349.875 49.2666 349.424 49.2666C348.954 49.2666 348.558 49.3577 348.234 49.54C347.911 49.7178 347.749 49.9844 347.749 50.3398C347.749 50.6543 347.847 50.8913 348.043 51.0508C348.234 51.2103 348.544 51.3402 348.973 51.4404C349.21 51.4951 349.474 51.5498 349.766 51.6045C350.062 51.6592 350.308 51.7093 350.504 51.7549C351.101 51.8916 351.561 52.1263 351.885 52.459C352.208 52.7962 352.37 53.2428 352.37 53.7988ZM363.103 55.9316C362.861 55.9954 362.597 56.0479 362.31 56.0889C362.027 56.1299 361.774 56.1504 361.551 56.1504C360.771 56.1504 360.179 55.9408 359.773 55.5215C359.368 55.1022 359.165 54.43 359.165 53.5049V49.4443H358.297V48.3643H359.165V46.1699H360.45V48.3643H363.103V49.4443H360.45V52.9238C360.45 53.3249 360.459 53.6393 360.478 53.8672C360.496 54.0905 360.56 54.3001 360.669 54.4961C360.769 54.6784 360.906 54.8128 361.079 54.8994C361.257 54.9814 361.526 55.0225 361.886 55.0225C362.095 55.0225 362.314 54.9928 362.542 54.9336C362.77 54.8698 362.934 54.8174 363.034 54.7764H363.103V55.9316ZM371.169 52.1855C371.169 53.4297 370.85 54.4118 370.212 55.1318C369.574 55.8519 368.719 56.2119 367.648 56.2119C366.568 56.2119 365.709 55.8519 365.071 55.1318C364.438 54.4118 364.121 53.4297 364.121 52.1855C364.121 50.9414 364.438 49.9593 365.071 49.2393C365.709 48.5146 366.568 48.1523 367.648 48.1523C368.719 48.1523 369.574 48.5146 370.212 49.2393C370.85 49.9593 371.169 50.9414 371.169 52.1855ZM369.843 52.1855C369.843 51.1966 369.649 50.4629 369.262 49.9844C368.874 49.5013 368.337 49.2598 367.648 49.2598C366.951 49.2598 366.409 49.5013 366.021 49.9844C365.639 50.4629 365.447 51.1966 365.447 52.1855C365.447 53.1426 365.641 53.8695 366.028 54.3662C366.416 54.8584 366.956 55.1045 367.648 55.1045C368.332 55.1045 368.868 54.8607 369.255 54.373C369.647 53.8809 369.843 53.1517 369.843 52.1855ZM382.052 55.9316C381.81 55.9954 381.546 56.0479 381.259 56.0889C380.976 56.1299 380.723 56.1504 380.5 56.1504C379.721 56.1504 379.128 55.9408 378.723 55.5215C378.317 55.1022 378.114 54.43 378.114 53.5049V49.4443H377.246V48.3643H378.114V46.1699H379.399V48.3643H382.052V49.4443H379.399V52.9238C379.399 53.3249 379.409 53.6393 379.427 53.8672C379.445 54.0905 379.509 54.3001 379.618 54.4961C379.718 54.6784 379.855 54.8128 380.028 54.8994C380.206 54.9814 380.475 55.0225 380.835 55.0225C381.045 55.0225 381.263 54.9928 381.491 54.9336C381.719 54.8698 381.883 54.8174 381.983 54.7764H382.052V55.9316ZM389.995 56H388.71V51.6523C388.71 51.3014 388.689 50.9733 388.648 50.668C388.607 50.3581 388.532 50.1165 388.423 49.9434C388.309 49.752 388.145 49.6107 387.931 49.5195C387.716 49.4238 387.438 49.376 387.097 49.376C386.746 49.376 386.379 49.4626 385.996 49.6357C385.613 49.8089 385.246 50.0299 384.896 50.2988V56H383.61V45.3633H384.896V49.2119C385.297 48.8792 385.711 48.6195 386.14 48.4326C386.568 48.2458 387.008 48.1523 387.459 48.1523C388.284 48.1523 388.913 48.4007 389.346 48.8975C389.779 49.3942 389.995 50.1097 389.995 51.0439V56ZM398.861 52.3154H393.235C393.235 52.7848 393.306 53.195 393.447 53.5459C393.589 53.8923 393.782 54.1771 394.028 54.4004C394.265 54.6191 394.546 54.7832 394.869 54.8926C395.197 55.002 395.557 55.0566 395.949 55.0566C396.469 55.0566 396.991 54.9541 397.515 54.749C398.043 54.5394 398.419 54.3343 398.643 54.1338H398.711V55.5352C398.278 55.7174 397.836 55.8701 397.385 55.9932C396.934 56.1162 396.46 56.1777 395.963 56.1777C394.696 56.1777 393.707 55.8359 392.996 55.1523C392.285 54.4642 391.93 53.4889 391.93 52.2266C391.93 50.9779 392.269 49.9867 392.948 49.2529C393.632 48.5192 394.53 48.1523 395.642 48.1523C396.672 48.1523 397.465 48.4531 398.021 49.0547C398.581 49.6562 398.861 50.5107 398.861 51.6182V52.3154ZM397.61 51.3311C397.606 50.6566 397.435 50.1348 397.098 49.7656C396.765 49.3965 396.257 49.2119 395.573 49.2119C394.885 49.2119 394.336 49.4147 393.926 49.8203C393.52 50.2259 393.29 50.7295 393.235 51.3311H397.61ZM407.03 56H405.745V45.3633H407.03V56ZM410.954 47.0859H409.505V45.7529H410.954V47.0859ZM410.872 56H409.587V48.3643H410.872V56ZM419.8 56H418.515V51.6523C418.515 51.3014 418.494 50.9733 418.453 50.668C418.412 50.3581 418.337 50.1165 418.228 49.9434C418.114 49.752 417.95 49.6107 417.735 49.5195C417.521 49.4238 417.243 49.376 416.901 49.376C416.55 49.376 416.184 49.4626 415.801 49.6357C415.418 49.8089 415.051 50.0299 414.7 50.2988V56H413.415V48.3643H414.7V49.2119C415.101 48.8792 415.516 48.6195 415.944 48.4326C416.373 48.2458 416.812 48.1523 417.264 48.1523C418.089 48.1523 418.717 48.4007 419.15 48.8975C419.583 49.3942 419.8 50.1097 419.8 51.0439V56ZM429.206 56H427.511L424.448 52.6572L423.614 53.4502V56H422.329V45.3633H423.614V52.1855L427.326 48.3643H428.946L425.398 51.8916L429.206 56ZM441.989 52.1855C441.989 53.4297 441.67 54.4118 441.032 55.1318C440.394 55.8519 439.54 56.2119 438.469 56.2119C437.389 56.2119 436.53 55.8519 435.892 55.1318C435.258 54.4118 434.941 53.4297 434.941 52.1855C434.941 50.9414 435.258 49.9593 435.892 49.2393C436.53 48.5146 437.389 48.1523 438.469 48.1523C439.54 48.1523 440.394 48.5146 441.032 49.2393C441.67 49.9593 441.989 50.9414 441.989 52.1855ZM440.663 52.1855C440.663 51.1966 440.469 50.4629 440.082 49.9844C439.695 49.5013 439.157 49.2598 438.469 49.2598C437.771 49.2598 437.229 49.5013 436.842 49.9844C436.459 50.4629 436.268 51.1966 436.268 52.1855C436.268 53.1426 436.461 53.8695 436.849 54.3662C437.236 54.8584 437.776 55.1045 438.469 55.1045C439.152 55.1045 439.688 54.8607 440.075 54.373C440.467 53.8809 440.663 53.1517 440.663 52.1855ZM448.094 46.6074H448.025C447.884 46.5664 447.7 46.5254 447.472 46.4844C447.244 46.4388 447.043 46.416 446.87 46.416C446.319 46.416 445.918 46.5391 445.667 46.7852C445.421 47.0267 445.298 47.4665 445.298 48.1045V48.3643H447.615V49.4443H445.339V56H444.054V49.4443H443.186V48.3643H444.054V48.1113C444.054 47.2044 444.279 46.5094 444.73 46.0264C445.182 45.5387 445.833 45.2949 446.686 45.2949C446.973 45.2949 447.23 45.3086 447.458 45.3359C447.69 45.3633 447.902 45.3952 448.094 45.4316V46.6074ZM459.763 56H458.484V55.1865C458.37 55.264 458.215 55.3734 458.02 55.5146C457.828 55.6514 457.641 55.7607 457.459 55.8428C457.245 55.9476 456.999 56.0342 456.721 56.1025C456.443 56.1755 456.117 56.2119 455.743 56.2119C455.055 56.2119 454.472 55.984 453.993 55.5283C453.515 55.0726 453.275 54.4915 453.275 53.7852C453.275 53.2064 453.398 52.7393 453.645 52.3838C453.895 52.0238 454.251 51.7412 454.711 51.5361C455.176 51.3311 455.734 51.1921 456.386 51.1191C457.037 51.0462 457.737 50.9915 458.484 50.9551V50.7568C458.484 50.4652 458.432 50.2236 458.327 50.0322C458.227 49.8408 458.081 49.6904 457.89 49.5811C457.707 49.4762 457.489 49.4056 457.233 49.3691C456.978 49.3327 456.712 49.3145 456.434 49.3145C456.096 49.3145 455.72 49.36 455.306 49.4512C454.891 49.5378 454.463 49.6654 454.021 49.834H453.952V48.5283C454.203 48.46 454.565 48.3848 455.039 48.3027C455.513 48.2207 455.98 48.1797 456.44 48.1797C456.978 48.1797 457.445 48.2253 457.842 48.3164C458.243 48.403 458.589 48.5534 458.881 48.7676C459.168 48.9772 459.387 49.2484 459.537 49.5811C459.688 49.9137 459.763 50.3262 459.763 50.8184V56ZM458.484 54.1201V51.9941C458.092 52.0169 457.63 52.0511 457.097 52.0967C456.568 52.1423 456.149 52.2083 455.839 52.2949C455.47 52.3997 455.171 52.5638 454.943 52.7871C454.715 53.0059 454.602 53.3089 454.602 53.6963C454.602 54.1338 454.734 54.4642 454.998 54.6875C455.262 54.9062 455.666 55.0156 456.208 55.0156C456.659 55.0156 457.072 54.929 457.445 54.7559C457.819 54.5781 458.165 54.3662 458.484 54.1201ZM463.536 56H462.251V45.3633H463.536V56ZM467.378 56H466.093V45.3633H467.378V56ZM485.985 56H484.7V51.6523C484.7 51.3242 484.684 51.0075 484.652 50.7021C484.625 50.3968 484.563 50.153 484.468 49.9707C484.363 49.7747 484.213 49.6266 484.017 49.5264C483.821 49.4261 483.538 49.376 483.169 49.376C482.809 49.376 482.449 49.4671 482.089 49.6494C481.729 49.8271 481.369 50.055 481.009 50.333C481.022 50.4378 481.034 50.5609 481.043 50.7021C481.052 50.8389 481.057 50.9756 481.057 51.1123V56H479.771V51.6523C479.771 51.3151 479.756 50.9961 479.724 50.6953C479.696 50.39 479.635 50.1462 479.539 49.9639C479.434 49.7679 479.284 49.6221 479.088 49.5264C478.892 49.4261 478.609 49.376 478.24 49.376C477.889 49.376 477.536 49.4626 477.181 49.6357C476.83 49.8089 476.479 50.0299 476.128 50.2988V56H474.843V48.3643H476.128V49.2119C476.529 48.8792 476.928 48.6195 477.324 48.4326C477.725 48.2458 478.151 48.1523 478.603 48.1523C479.122 48.1523 479.562 48.2617 479.922 48.4805C480.286 48.6992 480.558 49.0023 480.735 49.3896C481.255 48.9521 481.729 48.6377 482.157 48.4463C482.586 48.2503 483.044 48.1523 483.531 48.1523C484.37 48.1523 484.987 48.4076 485.384 48.918C485.785 49.4238 485.985 50.1325 485.985 51.0439V56ZM494.927 48.3643L490.47 58.8164H489.096L490.518 55.6309L487.476 48.3643H488.87L491.215 54.0244L493.58 48.3643H494.927ZM506.985 53.7988C506.985 54.4961 506.696 55.068 506.117 55.5146C505.543 55.9613 504.757 56.1846 503.759 56.1846C503.194 56.1846 502.674 56.1185 502.2 55.9863C501.731 55.8496 501.337 55.7015 501.018 55.542V54.0996H501.086C501.492 54.4049 501.943 54.6488 502.439 54.8311C502.936 55.0088 503.412 55.0977 503.868 55.0977C504.433 55.0977 504.875 55.0065 505.194 54.8242C505.513 54.6419 505.673 54.3548 505.673 53.9629C505.673 53.6621 505.586 53.4342 505.413 53.2793C505.24 53.1243 504.907 52.9922 504.415 52.8828C504.233 52.8418 503.993 52.7939 503.697 52.7393C503.406 52.6846 503.139 52.6253 502.897 52.5615C502.228 52.3838 501.751 52.124 501.469 51.7822C501.191 51.4359 501.052 51.012 501.052 50.5107C501.052 50.1963 501.116 49.9001 501.243 49.6221C501.375 49.3441 501.574 49.0957 501.838 48.877C502.093 48.6628 502.417 48.4941 502.809 48.3711C503.205 48.2435 503.647 48.1797 504.135 48.1797C504.59 48.1797 505.051 48.2367 505.516 48.3506C505.985 48.46 506.375 48.5944 506.685 48.7539V50.1279H506.616C506.288 49.8864 505.889 49.6836 505.42 49.5195C504.951 49.3509 504.49 49.2666 504.039 49.2666C503.57 49.2666 503.173 49.3577 502.85 49.54C502.526 49.7178 502.364 49.9844 502.364 50.3398C502.364 50.6543 502.462 50.8913 502.658 51.0508C502.85 51.2103 503.16 51.3402 503.588 51.4404C503.825 51.4951 504.089 51.5498 504.381 51.6045C504.677 51.6592 504.923 51.7093 505.119 51.7549C505.716 51.8916 506.176 52.1263 506.5 52.459C506.824 52.7962 506.985 53.2428 506.985 53.7988ZM515.339 52.1855C515.339 53.4297 515.02 54.4118 514.382 55.1318C513.744 55.8519 512.889 56.2119 511.818 56.2119C510.738 56.2119 509.879 55.8519 509.241 55.1318C508.608 54.4118 508.291 53.4297 508.291 52.1855C508.291 50.9414 508.608 49.9593 509.241 49.2393C509.879 48.5146 510.738 48.1523 511.818 48.1523C512.889 48.1523 513.744 48.5146 514.382 49.2393C515.02 49.9593 515.339 50.9414 515.339 52.1855ZM514.013 52.1855C514.013 51.1966 513.819 50.4629 513.432 49.9844C513.044 49.5013 512.507 49.2598 511.818 49.2598C511.121 49.2598 510.579 49.5013 510.191 49.9844C509.809 50.4629 509.617 51.1966 509.617 52.1855C509.617 53.1426 509.811 53.8695 510.198 54.3662C510.586 54.8584 511.126 55.1045 511.818 55.1045C512.502 55.1045 513.037 54.8607 513.425 54.373C513.817 53.8809 514.013 53.1517 514.013 52.1855ZM522.981 55.5215C522.553 55.7266 522.145 55.8861 521.758 56C521.375 56.1139 520.967 56.1709 520.534 56.1709C519.983 56.1709 519.477 56.0911 519.017 55.9316C518.556 55.7676 518.162 55.5215 517.834 55.1934C517.501 54.8652 517.244 54.4505 517.062 53.9492C516.879 53.4479 516.788 52.8623 516.788 52.1924C516.788 50.9437 517.13 49.9639 517.813 49.2529C518.502 48.542 519.409 48.1865 520.534 48.1865C520.972 48.1865 521.4 48.248 521.819 48.3711C522.243 48.4941 522.631 48.6445 522.981 48.8223V50.251H522.913C522.521 49.9456 522.116 49.7109 521.696 49.5469C521.282 49.3828 520.876 49.3008 520.479 49.3008C519.75 49.3008 519.174 49.5469 518.75 50.0391C518.331 50.5267 518.121 51.2445 518.121 52.1924C518.121 53.113 518.326 53.8216 518.736 54.3184C519.151 54.8105 519.732 55.0566 520.479 55.0566C520.739 55.0566 521.004 55.0225 521.272 54.9541C521.541 54.8857 521.783 54.7969 521.997 54.6875C522.184 54.5918 522.359 54.4915 522.523 54.3867C522.688 54.2773 522.817 54.1839 522.913 54.1064H522.981V55.5215ZM526.017 47.0859H524.567V45.7529H526.017V47.0859ZM525.935 56H524.649V48.3643H525.935V56ZM534.411 56H533.133V55.1865C533.019 55.264 532.864 55.3734 532.668 55.5146C532.477 55.6514 532.29 55.7607 532.107 55.8428C531.893 55.9476 531.647 56.0342 531.369 56.1025C531.091 56.1755 530.765 56.2119 530.392 56.2119C529.703 56.2119 529.12 55.984 528.642 55.5283C528.163 55.0726 527.924 54.4915 527.924 53.7852C527.924 53.2064 528.047 52.7393 528.293 52.3838C528.544 52.0238 528.899 51.7412 529.359 51.5361C529.824 51.3311 530.382 51.1921 531.034 51.1191C531.686 51.0462 532.385 50.9915 533.133 50.9551V50.7568C533.133 50.4652 533.08 50.2236 532.976 50.0322C532.875 49.8408 532.729 49.6904 532.538 49.5811C532.356 49.4762 532.137 49.4056 531.882 49.3691C531.627 49.3327 531.36 49.3145 531.082 49.3145C530.745 49.3145 530.369 49.36 529.954 49.4512C529.539 49.5378 529.111 49.6654 528.669 49.834H528.601V48.5283C528.851 48.46 529.214 48.3848 529.688 48.3027C530.161 48.2207 530.629 48.1797 531.089 48.1797C531.627 48.1797 532.094 48.2253 532.49 48.3164C532.891 48.403 533.238 48.5534 533.529 48.7676C533.816 48.9772 534.035 49.2484 534.186 49.5811C534.336 49.9137 534.411 50.3262 534.411 50.8184V56ZM533.133 54.1201V51.9941C532.741 52.0169 532.278 52.0511 531.745 52.0967C531.216 52.1423 530.797 52.2083 530.487 52.2949C530.118 52.3997 529.82 52.5638 529.592 52.7871C529.364 53.0059 529.25 53.3089 529.25 53.6963C529.25 54.1338 529.382 54.4642 529.646 54.6875C529.911 54.9062 530.314 55.0156 530.856 55.0156C531.308 55.0156 531.72 54.929 532.094 54.7559C532.467 54.5781 532.814 54.3662 533.133 54.1201ZM538.185 56H536.899V45.3633H538.185V56ZM556.792 56H555.507V51.6523C555.507 51.3242 555.491 51.0075 555.459 50.7021C555.432 50.3968 555.37 50.153 555.274 49.9707C555.17 49.7747 555.019 49.6266 554.823 49.5264C554.627 49.4261 554.345 49.376 553.976 49.376C553.616 49.376 553.256 49.4671 552.896 49.6494C552.535 49.8271 552.175 50.055 551.815 50.333C551.829 50.4378 551.84 50.5609 551.85 50.7021C551.859 50.8389 551.863 50.9756 551.863 51.1123V56H550.578V51.6523C550.578 51.3151 550.562 50.9961 550.53 50.6953C550.503 50.39 550.441 50.1462 550.346 49.9639C550.241 49.7679 550.09 49.6221 549.895 49.5264C549.699 49.4261 549.416 49.376 549.047 49.376C548.696 49.376 548.343 49.4626 547.987 49.6357C547.636 49.8089 547.285 50.0299 546.935 50.2988V56H545.649V48.3643H546.935V49.2119C547.336 48.8792 547.734 48.6195 548.131 48.4326C548.532 48.2458 548.958 48.1523 549.409 48.1523C549.929 48.1523 550.368 48.2617 550.729 48.4805C551.093 48.6992 551.364 49.0023 551.542 49.3896C552.062 48.9521 552.535 48.6377 552.964 48.4463C553.392 48.2503 553.85 48.1523 554.338 48.1523C555.176 48.1523 555.794 48.4076 556.19 48.918C556.591 49.4238 556.792 50.1325 556.792 51.0439V56ZM565.658 52.3154H560.032C560.032 52.7848 560.103 53.195 560.244 53.5459C560.385 53.8923 560.579 54.1771 560.825 54.4004C561.062 54.6191 561.342 54.7832 561.666 54.8926C561.994 55.002 562.354 55.0566 562.746 55.0566C563.266 55.0566 563.787 54.9541 564.312 54.749C564.84 54.5394 565.216 54.3343 565.439 54.1338H565.508V55.5352C565.075 55.7174 564.633 55.8701 564.182 55.9932C563.73 56.1162 563.257 56.1777 562.76 56.1777C561.493 56.1777 560.504 55.8359 559.793 55.1523C559.082 54.4642 558.727 53.4889 558.727 52.2266C558.727 50.9779 559.066 49.9867 559.745 49.2529C560.429 48.5192 561.326 48.1523 562.438 48.1523C563.468 48.1523 564.261 48.4531 564.817 49.0547C565.378 49.6562 565.658 50.5107 565.658 51.6182V52.3154ZM564.407 51.3311C564.403 50.6566 564.232 50.1348 563.895 49.7656C563.562 49.3965 563.054 49.2119 562.37 49.2119C561.682 49.2119 561.133 49.4147 560.723 49.8203C560.317 50.2259 560.087 50.7295 560.032 51.3311H564.407ZM573.8 56H572.515V55.2002C572.146 55.5192 571.76 55.7676 571.359 55.9453C570.958 56.123 570.523 56.2119 570.054 56.2119C569.142 56.2119 568.418 55.861 567.88 55.1592C567.347 54.4574 567.08 53.4844 567.08 52.2402C567.08 51.5931 567.171 51.0166 567.354 50.5107C567.54 50.0049 567.791 49.5742 568.105 49.2188C568.415 48.8724 568.775 48.6081 569.186 48.4258C569.6 48.2435 570.029 48.1523 570.471 48.1523C570.872 48.1523 571.227 48.1956 571.537 48.2822C571.847 48.3643 572.173 48.4941 572.515 48.6719V45.3633H573.8V56ZM572.515 54.1201V49.7383C572.168 49.5833 571.858 49.4762 571.585 49.417C571.312 49.3577 571.013 49.3281 570.689 49.3281C569.969 49.3281 569.409 49.5788 569.008 50.0801C568.607 50.5814 568.406 51.2923 568.406 52.2129C568.406 53.1198 568.561 53.8102 568.871 54.2842C569.181 54.7536 569.678 54.9883 570.361 54.9883C570.726 54.9883 571.095 54.9085 571.469 54.749C571.842 54.585 572.191 54.3753 572.515 54.1201ZM577.71 47.0859H576.261V45.7529H577.71V47.0859ZM577.628 56H576.343V48.3643H577.628V56ZM586.104 56H584.826V55.1865C584.712 55.264 584.557 55.3734 584.361 55.5146C584.17 55.6514 583.983 55.7607 583.801 55.8428C583.587 55.9476 583.34 56.0342 583.062 56.1025C582.785 56.1755 582.459 56.2119 582.085 56.2119C581.397 56.2119 580.813 55.984 580.335 55.5283C579.856 55.0726 579.617 54.4915 579.617 53.7852C579.617 53.2064 579.74 52.7393 579.986 52.3838C580.237 52.0238 580.592 51.7412 581.053 51.5361C581.518 51.3311 582.076 51.1921 582.728 51.1191C583.379 51.0462 584.079 50.9915 584.826 50.9551V50.7568C584.826 50.4652 584.774 50.2236 584.669 50.0322C584.569 49.8408 584.423 49.6904 584.231 49.5811C584.049 49.4762 583.83 49.4056 583.575 49.3691C583.32 49.3327 583.053 49.3145 582.775 49.3145C582.438 49.3145 582.062 49.36 581.647 49.4512C581.233 49.5378 580.804 49.6654 580.362 49.834H580.294V48.5283C580.545 48.46 580.907 48.3848 581.381 48.3027C581.855 48.2207 582.322 48.1797 582.782 48.1797C583.32 48.1797 583.787 48.2253 584.184 48.3164C584.585 48.403 584.931 48.5534 585.223 48.7676C585.51 48.9772 585.729 49.2484 585.879 49.5811C586.029 49.9137 586.104 50.3262 586.104 50.8184V56ZM584.826 54.1201V51.9941C584.434 52.0169 583.972 52.0511 583.438 52.0967C582.91 52.1423 582.491 52.2083 582.181 52.2949C581.812 52.3997 581.513 52.5638 581.285 52.7871C581.057 53.0059 580.943 53.3089 580.943 53.6963C580.943 54.1338 581.076 54.4642 581.34 54.6875C581.604 54.9062 582.007 55.0156 582.55 55.0156C583.001 55.0156 583.413 54.929 583.787 54.7559C584.161 54.5781 584.507 54.3662 584.826 54.1201ZM590.835 45.8213L590.657 53.1973H589.495L589.304 45.8213H590.835ZM590.767 56H589.372V54.5576H590.767V56Z" fill="#FDCEAA"/>
<line x1="293.5" y1="22" x2="293.5" y2="62" stroke="#FDCEAA"/>
</svg>
