<svg width="76" height="76" viewBox="0 0 76 76" fill="none" xmlns="http://www.w3.org/2000/svg">
<rect width="76" height="76" rx="38" fill="#27363B"/>
<g clip-path="url(#clip0_8_27)" filter="url(#filter0_i_8_27)">
<path d="M58.1667 28.845C57.9402 28.0371 57.499 27.3056 56.8901 26.7283C56.2639 26.1334 55.4964 25.7077 54.6601 25.4917C51.5301 24.6667 38.9901 24.6667 38.9901 24.6667C33.7623 24.6072 28.5358 24.8688 23.3401 25.45C22.5037 25.682 21.7377 26.1172 21.1101 26.7167C20.4934 27.31 20.0467 28.0417 19.8134 28.8433C19.2529 31.8629 18.9805 34.9289 19.0001 38C18.9801 41.0683 19.2517 44.1333 19.8134 47.1567C20.0417 47.955 20.4867 48.6834 21.1051 49.2717C21.7234 49.86 22.4934 50.285 23.3401 50.51C26.5117 51.3334 38.9901 51.3333 38.9901 51.3333C44.2245 51.3929 49.4577 51.1313 54.6601 50.55C55.4964 50.334 56.2639 49.9083 56.8901 49.3133C57.5067 48.725 57.9451 47.9933 58.1651 47.1967C58.7402 44.1783 59.0199 41.111 59.0001 38.0383C59.0433 34.9527 58.764 31.871 58.1667 28.8433V28.845ZM35.0034 43.7067V32.295L45.4367 38.0017L35.0034 43.7067Z" fill="#FDCEAA"/>
</g>
<defs>
<filter id="filter0_i_8_27" x="19" y="18" width="40" height="44" filterUnits="userSpaceOnUse" color-interpolation-filters="sRGB">
<feFlood flood-opacity="0" result="BackgroundImageFix"/>
<feBlend mode="normal" in="SourceGraphic" in2="BackgroundImageFix" result="shape"/>
<feColorMatrix in="SourceAlpha" type="matrix" values="0 0 0 0 0 0 0 0 0 0 0 0 0 0 0 0 0 0 127 0" result="hardAlpha"/>
<feOffset dy="4"/>
<feGaussianBlur stdDeviation="7.5"/>
<feComposite in2="hardAlpha" operator="arithmetic" k2="-1" k3="1"/>
<feColorMatrix type="matrix" values="0 0 0 0 0 0 0 0 0 0 0 0 0 0 0 0 0 0 0.2 0"/>
<feBlend mode="normal" in2="shape" result="effect1_innerShadow_8_27"/>
</filter>
<clipPath id="clip0_8_27">
<rect width="40" height="40" fill="white" transform="translate(19 18)"/>
</clipPath>
</defs>
</svg>
