<svg width="69" height="12" viewBox="0 0 69 12" fill="none" xmlns="http://www.w3.org/2000/svg">
<path d="M6.846 8.83H2.59L1.806 11H0.462L3.99 1.298H5.46L8.974 11H7.63L6.846 8.83ZM6.482 7.794L4.718 2.866L2.954 7.794H6.482ZM11.7856 4.756C12.0469 4.29867 12.4296 3.92533 12.9336 3.636C13.4376 3.34667 14.0116 3.202 14.6556 3.202C15.3463 3.202 15.9669 3.36533 16.5176 3.692C17.0683 4.01867 17.5023 4.48067 17.8196 5.078C18.1369 5.666 18.2956 6.352 18.2956 7.136C18.2956 7.91067 18.1369 8.60133 17.8196 9.208C17.5023 9.81467 17.0636 10.286 16.5036 10.622C15.9529 10.958 15.3369 11.126 14.6556 11.126C13.9929 11.126 13.4096 10.9813 12.9056 10.692C12.4109 10.4027 12.0376 10.034 11.7856 9.586V11H10.5116V0.64H11.7856V4.756ZM16.9936 7.136C16.9936 6.55733 16.8769 6.05333 16.6436 5.624C16.4103 5.19467 16.0929 4.868 15.6916 4.644C15.2996 4.42 14.8656 4.308 14.3896 4.308C13.9229 4.308 13.4889 4.42467 13.0876 4.658C12.6956 4.882 12.3783 5.21333 12.1356 5.652C11.9023 6.08133 11.7856 6.58067 11.7856 7.15C11.7856 7.72867 11.9023 8.23733 12.1356 8.676C12.3783 9.10533 12.6956 9.43667 13.0876 9.67C13.4889 9.894 13.9229 10.006 14.3896 10.006C14.8656 10.006 15.2996 9.894 15.6916 9.67C16.0929 9.43667 16.4103 9.10533 16.6436 8.676C16.8769 8.23733 16.9936 7.724 16.9936 7.136ZM23.3185 11.126C22.5999 11.126 21.9465 10.9627 21.3585 10.636C20.7799 10.3093 20.3225 9.84733 19.9865 9.25C19.6599 8.64333 19.4965 7.94333 19.4965 7.15C19.4965 6.366 19.6645 5.67533 20.0005 5.078C20.3459 4.47133 20.8125 4.00933 21.4005 3.692C21.9885 3.36533 22.6465 3.202 23.3745 3.202C24.1025 3.202 24.7605 3.36533 25.3485 3.692C25.9365 4.00933 26.3985 4.46667 26.7345 5.064C27.0799 5.66133 27.2525 6.35667 27.2525 7.15C27.2525 7.94333 27.0752 8.64333 26.7205 9.25C26.3752 9.84733 25.9039 10.3093 25.3065 10.636C24.7092 10.9627 24.0465 11.126 23.3185 11.126ZM23.3185 10.006C23.7759 10.006 24.2052 9.89867 24.6065 9.684C25.0079 9.46933 25.3299 9.14733 25.5725 8.718C25.8245 8.28867 25.9505 7.766 25.9505 7.15C25.9505 6.534 25.8292 6.01133 25.5865 5.582C25.3439 5.15267 25.0265 4.83533 24.6345 4.63C24.2425 4.41533 23.8179 4.308 23.3605 4.308C22.8939 4.308 22.4645 4.41533 22.0725 4.63C21.6899 4.83533 21.3819 5.15267 21.1485 5.582C20.9152 6.01133 20.7985 6.534 20.7985 7.15C20.7985 7.77533 20.9105 8.30267 21.1345 8.732C21.3679 9.16133 21.6759 9.48333 22.0585 9.698C22.4412 9.90333 22.8612 10.006 23.3185 10.006ZM35.7316 3.328V11H34.4576V9.866C34.2149 10.258 33.8743 10.566 33.4356 10.79C33.0063 11.0047 32.5303 11.112 32.0076 11.112C31.4103 11.112 30.8736 10.9907 30.3976 10.748C29.9216 10.496 29.5436 10.1227 29.2636 9.628C28.9929 9.13333 28.8576 8.53133 28.8576 7.822V3.328H30.1176V7.654C30.1176 8.41 30.3089 8.99333 30.6916 9.404C31.0743 9.80533 31.5969 10.006 32.2596 10.006C32.9409 10.006 33.4776 9.796 33.8696 9.376C34.2616 8.956 34.4576 8.34467 34.4576 7.542V3.328H35.7316ZM39.4367 4.378V8.9C39.4367 9.27333 39.516 9.53933 39.6747 9.698C39.8334 9.84733 40.1087 9.922 40.5007 9.922H41.4387V11H40.2907C39.5814 11 39.0494 10.8367 38.6947 10.51C38.34 10.1833 38.1627 9.64667 38.1627 8.9V4.378H37.1687V3.328H38.1627V1.396H39.4367V3.328H41.4387V4.378H39.4367ZM55.9407 3.188C56.5381 3.188 57.0701 3.314 57.5367 3.566C58.0034 3.80867 58.3721 4.17733 58.6427 4.672C58.9134 5.16667 59.0487 5.76867 59.0487 6.478V11H57.7887V6.66C57.7887 5.89467 57.5974 5.31133 57.2147 4.91C56.8414 4.49933 56.3327 4.294 55.6887 4.294C55.0261 4.294 54.4987 4.50867 54.1067 4.938C53.7147 5.358 53.5187 5.96933 53.5187 6.772V11H52.2587V6.66C52.2587 5.89467 52.0674 5.31133 51.6847 4.91C51.3114 4.49933 50.8027 4.294 50.1587 4.294C49.4961 4.294 48.9687 4.50867 48.5767 4.938C48.1847 5.358 47.9887 5.96933 47.9887 6.772V11H46.7147V3.328H47.9887V4.434C48.2407 4.03267 48.5767 3.72467 48.9967 3.51C49.4261 3.29533 49.8974 3.188 50.4107 3.188C51.0547 3.188 51.6241 3.33267 52.1187 3.622C52.6134 3.91133 52.9821 4.336 53.2247 4.896C53.4394 4.35467 53.7941 3.93467 54.2887 3.636C54.7834 3.33733 55.3341 3.188 55.9407 3.188ZM68.1385 6.87C68.1385 7.11267 68.1245 7.36933 68.0965 7.64H61.9645C62.0112 8.396 62.2679 8.98867 62.7345 9.418C63.2105 9.838 63.7845 10.048 64.4565 10.048C65.0072 10.048 65.4645 9.922 65.8285 9.67C66.2019 9.40867 66.4632 9.06333 66.6125 8.634H67.9845C67.7792 9.37133 67.3685 9.97333 66.7525 10.44C66.1365 10.8973 65.3712 11.126 64.4565 11.126C63.7285 11.126 63.0752 10.9627 62.4965 10.636C61.9272 10.3093 61.4792 9.84733 61.1525 9.25C60.8259 8.64333 60.6625 7.94333 60.6625 7.15C60.6625 6.35667 60.8212 5.66133 61.1385 5.064C61.4559 4.46667 61.8992 4.00933 62.4685 3.692C63.0472 3.36533 63.7099 3.202 64.4565 3.202C65.1845 3.202 65.8285 3.36067 66.3885 3.678C66.9485 3.99533 67.3779 4.434 67.6765 4.994C67.9845 5.54467 68.1385 6.17 68.1385 6.87ZM66.8225 6.604C66.8225 6.11867 66.7152 5.70333 66.5005 5.358C66.2859 5.00333 65.9919 4.73733 65.6185 4.56C65.2545 4.37333 64.8485 4.28 64.4005 4.28C63.7565 4.28 63.2059 4.48533 62.7485 4.896C62.3005 5.30667 62.0439 5.876 61.9785 6.604H66.8225Z" fill="#FDCEAA"/>
</svg>
