<svg width="47" height="12" viewBox="0 0 47 12" fill="none" xmlns="http://www.w3.org/2000/svg">
<path d="M6.846 8.83H2.59L1.806 11H0.462L3.99 1.298H5.46L8.974 11H7.63L6.846 8.83ZM6.482 7.794L4.718 2.866L2.954 7.794H6.482ZM10.0356 7.136C10.0356 6.352 10.1943 5.666 10.5116 5.078C10.8289 4.48067 11.2629 4.01867 11.8136 3.692C12.3736 3.36533 12.9989 3.202 13.6896 3.202C14.2869 3.202 14.8423 3.342 15.3556 3.622C15.8689 3.89267 16.2609 4.252 16.5316 4.7V0.64H17.8196V11H16.5316V9.558C16.2796 10.0153 15.9063 10.3933 15.4116 10.692C14.9169 10.9813 14.3383 11.126 13.6756 11.126C12.9943 11.126 12.3736 10.958 11.8136 10.622C11.2629 10.286 10.8289 9.81467 10.5116 9.208C10.1943 8.60133 10.0356 7.91067 10.0356 7.136ZM16.5316 7.15C16.5316 6.57133 16.4149 6.06733 16.1816 5.638C15.9483 5.20867 15.6309 4.882 15.2296 4.658C14.8376 4.42467 14.4036 4.308 13.9276 4.308C13.4516 4.308 13.0176 4.42 12.6256 4.644C12.2336 4.868 11.9209 5.19467 11.6876 5.624C11.4543 6.05333 11.3376 6.55733 11.3376 7.136C11.3376 7.724 11.4543 8.23733 11.6876 8.676C11.9209 9.10533 12.2336 9.43667 12.6256 9.67C13.0176 9.894 13.4516 10.006 13.9276 10.006C14.4036 10.006 14.8376 9.894 15.2296 9.67C15.6309 9.43667 15.9483 9.10533 16.1816 8.676C16.4149 8.23733 16.5316 7.72867 16.5316 7.15ZM22.8285 9.824L25.2085 3.328H26.5665L23.5565 11H22.0725L19.0625 3.328H20.4345L22.8285 9.824ZM28.4782 2.082C28.2355 2.082 28.0302 1.998 27.8622 1.83C27.6942 1.662 27.6102 1.45667 27.6102 1.214C27.6102 0.971333 27.6942 0.766 27.8622 0.598C28.0302 0.43 28.2355 0.345999 28.4782 0.345999C28.7115 0.345999 28.9075 0.43 29.0662 0.598C29.2342 0.766 29.3182 0.971333 29.3182 1.214C29.3182 1.45667 29.2342 1.662 29.0662 1.83C28.9075 1.998 28.7115 2.082 28.4782 2.082ZM29.0942 3.328V11H27.8202V3.328H29.0942ZM30.7895 7.15C30.7895 6.35667 30.9482 5.666 31.2655 5.078C31.5828 4.48067 32.0215 4.01867 32.5815 3.692C33.1508 3.36533 33.7995 3.202 34.5275 3.202C35.4702 3.202 36.2448 3.43067 36.8515 3.888C37.4675 4.34533 37.8735 4.98 38.0695 5.792H36.6975C36.5668 5.32533 36.3102 4.95667 35.9275 4.686C35.5542 4.41533 35.0875 4.28 34.5275 4.28C33.7995 4.28 33.2115 4.532 32.7635 5.036C32.3155 5.53067 32.0915 6.23533 32.0915 7.15C32.0915 8.074 32.3155 8.788 32.7635 9.292C33.2115 9.796 33.7995 10.048 34.5275 10.048C35.0875 10.048 35.5542 9.91733 35.9275 9.656C36.3008 9.39467 36.5575 9.02133 36.6975 8.536H38.0695C37.8642 9.32 37.4535 9.95 36.8375 10.426C36.2215 10.8927 35.4515 11.126 34.5275 11.126C33.7995 11.126 33.1508 10.9627 32.5815 10.636C32.0215 10.3093 31.5828 9.84733 31.2655 9.25C30.9482 8.65267 30.7895 7.95267 30.7895 7.15ZM46.7694 6.87C46.7694 7.11267 46.7554 7.36933 46.7274 7.64H40.5954C40.6421 8.396 40.8987 8.98867 41.3654 9.418C41.8414 9.838 42.4154 10.048 43.0874 10.048C43.6381 10.048 44.0954 9.922 44.4594 9.67C44.8327 9.40867 45.0941 9.06333 45.2434 8.634H46.6154C46.4101 9.37133 45.9994 9.97333 45.3834 10.44C44.7674 10.8973 44.0021 11.126 43.0874 11.126C42.3594 11.126 41.7061 10.9627 41.1274 10.636C40.5581 10.3093 40.1101 9.84733 39.7834 9.25C39.4567 8.64333 39.2934 7.94333 39.2934 7.15C39.2934 6.35667 39.4521 5.66133 39.7694 5.064C40.0867 4.46667 40.5301 4.00933 41.0994 3.692C41.6781 3.36533 42.3407 3.202 43.0874 3.202C43.8154 3.202 44.4594 3.36067 45.0194 3.678C45.5794 3.99533 46.0087 4.434 46.3074 4.994C46.6154 5.54467 46.7694 6.17 46.7694 6.87ZM45.4534 6.604C45.4534 6.11867 45.3461 5.70333 45.1314 5.358C44.9167 5.00333 44.6227 4.73733 44.2494 4.56C43.8854 4.37333 43.4794 4.28 43.0314 4.28C42.3874 4.28 41.8367 4.48533 41.3794 4.896C40.9314 5.30667 40.6747 5.876 40.6094 6.604H45.4534Z" fill="#FDCEAA"/>
</svg>
