<svg width="84" height="11" viewBox="0 0 84 11" fill="none" xmlns="http://www.w3.org/2000/svg">
<path d="M0.602 5.114C0.602 4.162 0.816667 3.308 1.246 2.552C1.67533 1.78667 2.25867 1.18933 2.996 0.76C3.74267 0.330666 4.56867 0.116 5.474 0.116C6.538 0.116 7.46667 0.372666 8.26 0.886C9.05333 1.39933 9.632 2.12733 9.996 3.07H8.47C8.19933 2.482 7.80733 2.02933 7.294 1.712C6.79 1.39467 6.18333 1.236 5.474 1.236C4.79267 1.236 4.18133 1.39467 3.64 1.712C3.09867 2.02933 2.674 2.482 2.366 3.07C2.058 3.64867 1.904 4.33 1.904 5.114C1.904 5.88867 2.058 6.57 2.366 7.158C2.674 7.73667 3.09867 8.18467 3.64 8.502C4.18133 8.81933 4.79267 8.978 5.474 8.978C6.18333 8.978 6.79 8.824 7.294 8.516C7.80733 8.19867 8.19933 7.746 8.47 7.158H9.996C9.632 8.09133 9.05333 8.81467 8.26 9.328C7.46667 9.832 6.538 10.084 5.474 10.084C4.56867 10.084 3.74267 9.874 2.996 9.454C2.25867 9.02467 1.67533 8.432 1.246 7.676C0.816667 6.92 0.602 6.066 0.602 5.114ZM15.2385 10.126C14.5198 10.126 13.8665 9.96267 13.2785 9.636C12.6998 9.30933 12.2425 8.84733 11.9065 8.25C11.5798 7.64333 11.4165 6.94333 11.4165 6.15C11.4165 5.366 11.5845 4.67533 11.9205 4.078C12.2658 3.47133 12.7325 3.00933 13.3205 2.692C13.9085 2.36533 14.5665 2.202 15.2945 2.202C16.0225 2.202 16.6805 2.36533 17.2685 2.692C17.8565 3.00933 18.3185 3.46667 18.6545 4.064C18.9998 4.66133 19.1725 5.35667 19.1725 6.15C19.1725 6.94333 18.9951 7.64333 18.6405 8.25C18.2951 8.84733 17.8238 9.30933 17.2265 9.636C16.6291 9.96267 15.9665 10.126 15.2385 10.126ZM15.2385 9.006C15.6958 9.006 16.1251 8.89867 16.5265 8.684C16.9278 8.46933 17.2498 8.14733 17.4925 7.718C17.7445 7.28867 17.8705 6.766 17.8705 6.15C17.8705 5.534 17.7491 5.01133 17.5065 4.582C17.2638 4.15267 16.9465 3.83533 16.5545 3.63C16.1625 3.41533 15.7378 3.308 15.2805 3.308C14.8138 3.308 14.3845 3.41533 13.9925 3.63C13.6098 3.83533 13.3018 4.15267 13.0685 4.582C12.8351 5.01133 12.7185 5.534 12.7185 6.15C12.7185 6.77533 12.8305 7.30267 13.0545 7.732C13.2878 8.16133 13.5958 8.48333 13.9785 8.698C14.3611 8.90333 14.7811 9.006 15.2385 9.006ZM24.5855 2.188C25.5189 2.188 26.2749 2.47267 26.8535 3.042C27.4322 3.602 27.7215 4.414 27.7215 5.478V10H26.4615V5.66C26.4615 4.89467 26.2702 4.31133 25.8875 3.91C25.5049 3.49933 24.9822 3.294 24.3195 3.294C23.6475 3.294 23.1109 3.504 22.7095 3.924C22.3175 4.344 22.1215 4.95533 22.1215 5.758V10H20.8475V2.328H22.1215V3.42C22.3735 3.028 22.7142 2.72467 23.1435 2.51C23.5822 2.29533 24.0629 2.188 24.5855 2.188ZM31.3566 3.378V7.9C31.3566 8.27333 31.4359 8.53933 31.5946 8.698C31.7533 8.84733 32.0286 8.922 32.4206 8.922H33.3586V10H32.2106C31.5013 10 30.9693 9.83667 30.6146 9.51C30.2599 9.18333 30.0826 8.64667 30.0826 7.9V3.378H29.0886V2.328H30.0826V0.395999H31.3566V2.328H33.3586V3.378H31.3566ZM34.4262 6.136C34.4262 5.352 34.5849 4.666 34.9022 4.078C35.2196 3.48067 35.6536 3.01867 36.2042 2.692C36.7642 2.36533 37.3849 2.202 38.0662 2.202C38.7382 2.202 39.3216 2.34667 39.8162 2.636C40.3109 2.92533 40.6796 3.28933 40.9222 3.728V2.328H42.2102V10H40.9222V8.572C40.6702 9.02 40.2922 9.39333 39.7882 9.692C39.2936 9.98133 38.7149 10.126 38.0522 10.126C37.3709 10.126 36.7549 9.958 36.2042 9.622C35.6536 9.286 35.2196 8.81467 34.9022 8.208C34.5849 7.60133 34.4262 6.91067 34.4262 6.136ZM40.9222 6.15C40.9222 5.57133 40.8056 5.06733 40.5722 4.638C40.3389 4.20867 40.0216 3.882 39.6202 3.658C39.2282 3.42467 38.7942 3.308 38.3182 3.308C37.8422 3.308 37.4082 3.42 37.0162 3.644C36.6242 3.868 36.3116 4.19467 36.0782 4.624C35.8449 5.05333 35.7282 5.55733 35.7282 6.136C35.7282 6.724 35.8449 7.23733 36.0782 7.676C36.3116 8.10533 36.6242 8.43667 37.0162 8.67C37.4082 8.894 37.8422 9.006 38.3182 9.006C38.7942 9.006 39.2282 8.894 39.6202 8.67C40.0216 8.43667 40.3389 8.10533 40.5722 7.676C40.8056 7.23733 40.9222 6.72867 40.9222 6.15ZM43.8872 6.15C43.8872 5.35667 44.0458 4.666 44.3632 4.078C44.6805 3.48067 45.1192 3.01867 45.6792 2.692C46.2485 2.36533 46.8972 2.202 47.6252 2.202C48.5678 2.202 49.3425 2.43067 49.9492 2.888C50.5652 3.34533 50.9712 3.98 51.1672 4.792H49.7952C49.6645 4.32533 49.4078 3.95667 49.0252 3.686C48.6518 3.41533 48.1852 3.28 47.6252 3.28C46.8972 3.28 46.3092 3.532 45.8612 4.036C45.4132 4.53067 45.1892 5.23533 45.1892 6.15C45.1892 7.074 45.4132 7.788 45.8612 8.292C46.3092 8.796 46.8972 9.048 47.6252 9.048C48.1852 9.048 48.6518 8.91733 49.0252 8.656C49.3985 8.39467 49.6552 8.02133 49.7952 7.536H51.1672C50.9618 8.32 50.5512 8.95 49.9352 9.426C49.3192 9.89267 48.5492 10.126 47.6252 10.126C46.8972 10.126 46.2485 9.96267 45.6792 9.636C45.1192 9.30933 44.6805 8.84733 44.3632 8.25C44.0458 7.65267 43.8872 6.95267 43.8872 6.15ZM54.4211 3.378V7.9C54.4211 8.27333 54.5004 8.53933 54.6591 8.698C54.8177 8.84733 55.0931 8.922 55.4851 8.922H56.4231V10H55.2751C54.5657 10 54.0337 9.83667 53.6791 9.51C53.3244 9.18333 53.1471 8.64667 53.1471 7.9V3.378H52.1531V2.328H53.1471V0.395999H54.4211V2.328H56.4231V3.378H54.4211ZM70.9251 2.188C71.5224 2.188 72.0544 2.314 72.5211 2.566C72.9878 2.80867 73.3564 3.17733 73.6271 3.672C73.8978 4.16667 74.0331 4.76867 74.0331 5.478V10H72.7731V5.66C72.7731 4.89467 72.5818 4.31133 72.1991 3.91C71.8258 3.49933 71.3171 3.294 70.6731 3.294C70.0104 3.294 69.4831 3.50867 69.0911 3.938C68.6991 4.358 68.5031 4.96933 68.5031 5.772V10H67.2431V5.66C67.2431 4.89467 67.0518 4.31133 66.6691 3.91C66.2958 3.49933 65.7871 3.294 65.1431 3.294C64.4804 3.294 63.9531 3.50867 63.5611 3.938C63.1691 4.358 62.9731 4.96933 62.9731 5.772V10H61.6991V2.328H62.9731V3.434C63.2251 3.03267 63.5611 2.72467 63.9811 2.51C64.4104 2.29533 64.8818 2.188 65.3951 2.188C66.0391 2.188 66.6084 2.33267 67.1031 2.622C67.5978 2.91133 67.9664 3.336 68.2091 3.896C68.4238 3.35467 68.7784 2.93467 69.2731 2.636C69.7678 2.33733 70.3184 2.188 70.9251 2.188ZM83.1229 5.87C83.1229 6.11267 83.1089 6.36933 83.0809 6.64H76.9489C76.9956 7.396 77.2523 7.98867 77.7189 8.418C78.1949 8.838 78.7689 9.048 79.4409 9.048C79.9916 9.048 80.4489 8.922 80.8129 8.67C81.1863 8.40867 81.4476 8.06333 81.5969 7.634H82.9689C82.7636 8.37133 82.3529 8.97333 81.7369 9.44C81.1209 9.89733 80.3556 10.126 79.4409 10.126C78.7129 10.126 78.0596 9.96267 77.4809 9.636C76.9116 9.30933 76.4636 8.84733 76.1369 8.25C75.8103 7.64333 75.6469 6.94333 75.6469 6.15C75.6469 5.35667 75.8056 4.66133 76.1229 4.064C76.4403 3.46667 76.8836 3.00933 77.4529 2.692C78.0316 2.36533 78.6943 2.202 79.4409 2.202C80.1689 2.202 80.8129 2.36067 81.3729 2.678C81.9329 2.99533 82.3623 3.434 82.6609 3.994C82.9689 4.54467 83.1229 5.17 83.1229 5.87ZM81.8069 5.604C81.8069 5.11867 81.6996 4.70333 81.4849 4.358C81.2703 4.00333 80.9763 3.73733 80.6029 3.56C80.2389 3.37333 79.8329 3.28 79.3849 3.28C78.7409 3.28 78.1903 3.48533 77.7329 3.896C77.2849 4.30667 77.0283 4.876 76.9629 5.604H81.8069Z" fill="#FDCEAA"/>
</svg>
