<svg width="41" height="11" viewBox="0 0 41 11" fill="none" xmlns="http://www.w3.org/2000/svg">
<path d="M7.596 0.242V10H6.322V5.576H1.352V10H0.0780001V0.242H1.352V4.526H6.322V0.242H7.596ZM13.1174 10.126C12.3987 10.126 11.7454 9.96267 11.1574 9.636C10.5787 9.30933 10.1214 8.84733 9.78536 8.25C9.45869 7.64333 9.29536 6.94333 9.29536 6.15C9.29536 5.366 9.46336 4.67533 9.79936 4.078C10.1447 3.47133 10.6114 3.00933 11.1994 2.692C11.7874 2.36533 12.4454 2.202 13.1734 2.202C13.9014 2.202 14.5594 2.36533 15.1474 2.692C15.7354 3.00933 16.1974 3.46667 16.5334 4.064C16.8787 4.66133 17.0514 5.35667 17.0514 6.15C17.0514 6.94333 16.874 7.64333 16.5194 8.25C16.174 8.84733 15.7027 9.30933 15.1054 9.636C14.508 9.96267 13.8454 10.126 13.1174 10.126ZM13.1174 9.006C13.5747 9.006 14.004 8.89867 14.4054 8.684C14.8067 8.46933 15.1287 8.14733 15.3714 7.718C15.6234 7.28867 15.7494 6.766 15.7494 6.15C15.7494 5.534 15.628 5.01133 15.3854 4.582C15.1427 4.15267 14.8254 3.83533 14.4334 3.63C14.0414 3.41533 13.6167 3.308 13.1594 3.308C12.6927 3.308 12.2634 3.41533 11.8714 3.63C11.4887 3.83533 11.1807 4.15267 10.9474 4.582C10.714 5.01133 10.5974 5.534 10.5974 6.15C10.5974 6.77533 10.7094 7.30267 10.9334 7.732C11.1667 8.16133 11.4747 8.48333 11.8574 8.698C12.24 8.90333 12.66 9.006 13.1174 9.006ZM27.9524 2.188C28.5498 2.188 29.0818 2.314 29.5484 2.566C30.0151 2.80867 30.3838 3.17733 30.6544 3.672C30.9251 4.16667 31.0604 4.76867 31.0604 5.478V10H29.8004V5.66C29.8004 4.89467 29.6091 4.31133 29.2264 3.91C28.8531 3.49933 28.3444 3.294 27.7004 3.294C27.0378 3.294 26.5104 3.50867 26.1184 3.938C25.7264 4.358 25.5304 4.96933 25.5304 5.772V10H24.2704V5.66C24.2704 4.89467 24.0791 4.31133 23.6964 3.91C23.3231 3.49933 22.8144 3.294 22.1704 3.294C21.5078 3.294 20.9804 3.50867 20.5884 3.938C20.1964 4.358 20.0004 4.96933 20.0004 5.772V10H18.7264V2.328H20.0004V3.434C20.2524 3.03267 20.5884 2.72467 21.0084 2.51C21.4378 2.29533 21.9091 2.188 22.4224 2.188C23.0664 2.188 23.6358 2.33267 24.1304 2.622C24.6251 2.91133 24.9938 3.336 25.2364 3.896C25.4511 3.35467 25.8058 2.93467 26.3004 2.636C26.7951 2.33733 27.3458 2.188 27.9524 2.188ZM40.1503 5.87C40.1503 6.11267 40.1363 6.36933 40.1083 6.64H33.9763C34.0229 7.396 34.2796 7.98867 34.7463 8.418C35.2223 8.838 35.7963 9.048 36.4683 9.048C37.0189 9.048 37.4763 8.922 37.8403 8.67C38.2136 8.40867 38.4749 8.06333 38.6243 7.634H39.9963C39.7909 8.37133 39.3803 8.97333 38.7643 9.44C38.1483 9.89733 37.3829 10.126 36.4683 10.126C35.7403 10.126 35.0869 9.96267 34.5083 9.636C33.9389 9.30933 33.4909 8.84733 33.1643 8.25C32.8376 7.64333 32.6743 6.94333 32.6743 6.15C32.6743 5.35667 32.8329 4.66133 33.1503 4.064C33.4676 3.46667 33.9109 3.00933 34.4803 2.692C35.0589 2.36533 35.7216 2.202 36.4683 2.202C37.1963 2.202 37.8403 2.36067 38.4003 2.678C38.9603 2.99533 39.3896 3.434 39.6883 3.994C39.9963 4.54467 40.1503 5.17 40.1503 5.87ZM38.8343 5.604C38.8343 5.11867 38.7269 4.70333 38.5123 4.358C38.2976 4.00333 38.0036 3.73733 37.6303 3.56C37.2663 3.37333 36.8603 3.28 36.4123 3.28C35.7683 3.28 35.2176 3.48533 34.7603 3.896C34.3123 4.30667 34.0556 4.876 33.9903 5.604H38.8343Z" fill="#FDCEAA"/>
</svg>
