<svg width="167" height="19" viewBox="0 0 167 19" fill="none" xmlns="http://www.w3.org/2000/svg">
<path d="M7.046 7.574C7.718 7.694 8.288 8.048 8.756 8.636C9.224 9.224 9.458 9.89 9.458 10.634C9.458 11.27 9.29 11.846 8.954 12.362C8.63 12.866 8.156 13.268 7.532 13.568C6.908 13.856 6.182 14 5.354 14H0.35V1.49H5.12C5.972 1.49 6.704 1.634 7.316 1.922C7.928 2.21 8.39 2.6 8.702 3.092C9.014 3.572 9.17 4.112 9.17 4.712C9.17 5.432 8.978 6.032 8.594 6.512C8.21 6.992 7.694 7.346 7.046 7.574ZM2.402 6.746H4.94C5.612 6.746 6.134 6.596 6.506 6.296C6.89 5.984 7.082 5.54 7.082 4.964C7.082 4.4 6.89 3.962 6.506 3.65C6.134 3.326 5.612 3.164 4.94 3.164H2.402V6.746ZM5.174 12.326C5.87 12.326 6.416 12.158 6.812 11.822C7.208 11.486 7.406 11.018 7.406 10.418C7.406 9.806 7.196 9.32 6.776 8.96C6.356 8.6 5.798 8.42 5.102 8.42H2.402V12.326H5.174ZM20.7779 8.798C20.7779 9.17 20.7539 9.506 20.7059 9.806H13.1279C13.1879 10.598 13.4819 11.234 14.0099 11.714C14.5379 12.194 15.1859 12.434 15.9539 12.434C17.0579 12.434 17.8379 11.972 18.2939 11.048H20.5079C20.2079 11.96 19.6619 12.71 18.8699 13.298C18.0899 13.874 17.1179 14.162 15.9539 14.162C15.0059 14.162 14.1539 13.952 13.3979 13.532C12.6539 13.1 12.0659 12.5 11.6339 11.732C11.2139 10.952 11.0039 10.052 11.0039 9.032C11.0039 8.012 11.2079 7.118 11.6159 6.35C12.0359 5.57 12.6179 4.97 13.3619 4.55C14.1179 4.13 14.9819 3.92 15.9539 3.92C16.8899 3.92 17.7239 4.124 18.4559 4.532C19.1879 4.94 19.7579 5.516 20.1659 6.26C20.5739 6.992 20.7779 7.838 20.7779 8.798ZM18.6359 8.15C18.6239 7.394 18.3539 6.788 17.8259 6.332C17.2979 5.876 16.6439 5.648 15.8639 5.648C15.1559 5.648 14.5499 5.876 14.0459 6.332C13.5419 6.776 13.2419 7.382 13.1459 8.15H18.6359ZM27.8013 3.92C28.5813 3.92 29.2773 4.082 29.8893 4.406C30.5133 4.73 30.9993 5.21 31.3473 5.846C31.6953 6.482 31.8693 7.25 31.8693 8.15V14H29.8353V8.456C29.8353 7.568 29.6133 6.89 29.1693 6.422C28.7253 5.942 28.1193 5.702 27.3513 5.702C26.5833 5.702 25.9713 5.942 25.5153 6.422C25.0713 6.89 24.8493 7.568 24.8493 8.456V14H22.7973V4.082H24.8493V5.216C25.1853 4.808 25.6113 4.49 26.1273 4.262C26.6553 4.034 27.2133 3.92 27.8013 3.92ZM35.5307 2.768C35.1587 2.768 34.8467 2.642 34.5947 2.39C34.3427 2.138 34.2167 1.826 34.2167 1.454C34.2167 1.082 34.3427 0.769999 34.5947 0.518C34.8467 0.265999 35.1587 0.139999 35.5307 0.139999C35.8907 0.139999 36.1967 0.265999 36.4487 0.518C36.7007 0.769999 36.8267 1.082 36.8267 1.454C36.8267 1.826 36.7007 2.138 36.4487 2.39C36.1967 2.642 35.8907 2.768 35.5307 2.768ZM36.5387 15.944C36.5387 16.916 36.2927 17.618 35.8007 18.05C35.3207 18.494 34.6187 18.716 33.6947 18.716H32.6327V16.988H33.3347C33.7547 16.988 34.0487 16.904 34.2167 16.736C34.3967 16.58 34.4867 16.316 34.4867 15.944V4.082H36.5387V15.944ZM38.5488 8.996C38.5488 8 38.7528 7.118 39.1608 6.35C39.5808 5.582 40.1448 4.988 40.8528 4.568C41.5728 4.136 42.3648 3.92 43.2288 3.92C44.0088 3.92 44.6868 4.076 45.2628 4.388C45.8508 4.688 46.3188 5.066 46.6668 5.522V4.082H48.7368V14H46.6668V12.524C46.3188 12.992 45.8448 13.382 45.2448 13.694C44.6448 14.006 43.9608 14.162 43.1928 14.162C42.3408 14.162 41.5608 13.946 40.8528 13.514C40.1448 13.07 39.5808 12.458 39.1608 11.678C38.7528 10.886 38.5488 9.992 38.5488 8.996ZM46.6668 9.032C46.6668 8.348 46.5228 7.754 46.2348 7.25C45.9588 6.746 45.5928 6.362 45.1368 6.098C44.6808 5.834 44.1888 5.702 43.6608 5.702C43.1328 5.702 42.6408 5.834 42.1848 6.098C41.7288 6.35 41.3568 6.728 41.0688 7.232C40.7928 7.724 40.6548 8.312 40.6548 8.996C40.6548 9.68 40.7928 10.28 41.0688 10.796C41.3568 11.312 41.7288 11.708 42.1848 11.984C42.6528 12.248 43.1448 12.38 43.6608 12.38C44.1888 12.38 44.6808 12.248 45.1368 11.984C45.5928 11.72 45.9588 11.336 46.2348 10.832C46.5228 10.316 46.6668 9.716 46.6668 9.032ZM63.438 3.92C64.218 3.92 64.914 4.082 65.526 4.406C66.15 4.73 66.636 5.21 66.984 5.846C67.344 6.482 67.524 7.25 67.524 8.15V14H65.49V8.456C65.49 7.568 65.268 6.89 64.824 6.422C64.38 5.942 63.774 5.702 63.006 5.702C62.238 5.702 61.626 5.942 61.17 6.422C60.726 6.89 60.504 7.568 60.504 8.456V14H58.47V8.456C58.47 7.568 58.248 6.89 57.804 6.422C57.36 5.942 56.754 5.702 55.986 5.702C55.218 5.702 54.606 5.942 54.15 6.422C53.706 6.89 53.484 7.568 53.484 8.456V14H51.432V4.082H53.484V5.216C53.82 4.808 54.246 4.49 54.762 4.262C55.278 4.034 55.83 3.92 56.418 3.92C57.21 3.92 57.918 4.088 58.542 4.424C59.166 4.76 59.646 5.246 59.982 5.882C60.282 5.282 60.75 4.808 61.386 4.46C62.022 4.1 62.706 3.92 63.438 3.92ZM71.1792 2.768C70.8072 2.768 70.4952 2.642 70.2432 2.39C69.9912 2.138 69.8652 1.826 69.8652 1.454C69.8652 1.082 69.9912 0.769999 70.2432 0.518C70.4952 0.265999 70.8072 0.139999 71.1792 0.139999C71.5392 0.139999 71.8452 0.265999 72.0972 0.518C72.3492 0.769999 72.4752 1.082 72.4752 1.454C72.4752 1.826 72.3492 2.138 72.0972 2.39C71.8452 2.642 71.5392 2.768 71.1792 2.768ZM72.1872 4.082V14H70.1352V4.082H72.1872ZM79.8853 3.92C80.6653 3.92 81.3613 4.082 81.9733 4.406C82.5973 4.73 83.0833 5.21 83.4313 5.846C83.7793 6.482 83.9533 7.25 83.9533 8.15V14H81.9193V8.456C81.9193 7.568 81.6973 6.89 81.2533 6.422C80.8093 5.942 80.2033 5.702 79.4353 5.702C78.6673 5.702 78.0553 5.942 77.5993 6.422C77.1553 6.89 76.9333 7.568 76.9333 8.456V14H74.8813V4.082H76.9333V5.216C77.2693 4.808 77.6953 4.49 78.2113 4.262C78.7393 4.034 79.2973 3.92 79.8853 3.92ZM93.2985 12.344H97.5285V14H91.2465V1.49H93.2985V12.344ZM108.335 8.798C108.335 9.17 108.311 9.506 108.263 9.806H100.685C100.745 10.598 101.039 11.234 101.567 11.714C102.095 12.194 102.743 12.434 103.511 12.434C104.615 12.434 105.395 11.972 105.851 11.048H108.065C107.765 11.96 107.219 12.71 106.427 13.298C105.647 13.874 104.675 14.162 103.511 14.162C102.563 14.162 101.711 13.952 100.955 13.532C100.211 13.1 99.6225 12.5 99.1905 11.732C98.7705 10.952 98.5605 10.052 98.5605 9.032C98.5605 8.012 98.7645 7.118 99.1725 6.35C99.5925 5.57 100.175 4.97 100.919 4.55C101.675 4.13 102.539 3.92 103.511 3.92C104.447 3.92 105.281 4.124 106.013 4.532C106.745 4.94 107.315 5.516 107.723 6.26C108.131 6.992 108.335 7.838 108.335 8.798ZM106.193 8.15C106.181 7.394 105.911 6.788 105.383 6.332C104.855 5.876 104.201 5.648 103.421 5.648C102.713 5.648 102.107 5.876 101.603 6.332C101.099 6.776 100.799 7.382 100.703 8.15H106.193ZM114.512 5.756H112.676V14H110.606V5.756H109.436V4.082H110.606V3.38C110.606 2.24 110.906 1.412 111.506 0.895999C112.118 0.368 113.072 0.104 114.368 0.104V1.814C113.744 1.814 113.306 1.934 113.054 2.174C112.802 2.402 112.676 2.804 112.676 3.38V4.082H114.512V5.756ZM125.42 8.798C125.42 9.17 125.396 9.506 125.348 9.806H117.77C117.83 10.598 118.124 11.234 118.652 11.714C119.18 12.194 119.828 12.434 120.596 12.434C121.7 12.434 122.48 11.972 122.936 11.048H125.15C124.85 11.96 124.304 12.71 123.512 13.298C122.732 13.874 121.76 14.162 120.596 14.162C119.648 14.162 118.796 13.952 118.04 13.532C117.296 13.1 116.708 12.5 116.276 11.732C115.856 10.952 115.646 10.052 115.646 9.032C115.646 8.012 115.85 7.118 116.258 6.35C116.678 5.57 117.26 4.97 118.004 4.55C118.76 4.13 119.624 3.92 120.596 3.92C121.532 3.92 122.366 4.124 123.098 4.532C123.83 4.94 124.4 5.516 124.808 6.26C125.216 6.992 125.42 7.838 125.42 8.798ZM123.278 8.15C123.266 7.394 122.996 6.788 122.468 6.332C121.94 5.876 121.286 5.648 120.506 5.648C119.798 5.648 119.192 5.876 118.688 6.332C118.184 6.776 117.884 7.382 117.788 8.15H123.278ZM129.492 5.558C129.84 5.078 130.314 4.688 130.914 4.388C131.526 4.076 132.204 3.92 132.948 3.92C133.824 3.92 134.616 4.13 135.324 4.55C136.032 4.97 136.59 5.57 136.998 6.35C137.406 7.118 137.61 8 137.61 8.996C137.61 9.992 137.406 10.886 136.998 11.678C136.59 12.458 136.026 13.07 135.306 13.514C134.598 13.946 133.812 14.162 132.948 14.162C132.18 14.162 131.496 14.012 130.896 13.712C130.308 13.412 129.84 13.028 129.492 12.56V14H127.44V0.68H129.492V5.558ZM135.522 8.996C135.522 8.312 135.378 7.724 135.09 7.232C134.814 6.728 134.442 6.35 133.974 6.098C133.518 5.834 133.026 5.702 132.498 5.702C131.982 5.702 131.49 5.834 131.022 6.098C130.566 6.362 130.194 6.746 129.906 7.25C129.63 7.754 129.492 8.348 129.492 9.032C129.492 9.716 129.63 10.316 129.906 10.832C130.194 11.336 130.566 11.72 131.022 11.984C131.49 12.248 131.982 12.38 132.498 12.38C133.026 12.38 133.518 12.248 133.974 11.984C134.442 11.708 134.814 11.312 135.09 10.796C135.378 10.28 135.522 9.68 135.522 8.996ZM143.473 12.164L146.281 4.082H148.459L144.679 14H142.231L138.469 4.082H140.665L143.473 12.164ZM152.062 5.522C152.362 5.018 152.758 4.628 153.25 4.352C153.754 4.064 154.348 3.92 155.032 3.92V6.044H154.51C153.706 6.044 153.094 6.248 152.674 6.656C152.266 7.064 152.062 7.772 152.062 8.78V14H150.01V4.082H152.062V5.522ZM166.008 8.798C166.008 9.17 165.984 9.506 165.936 9.806H158.358C158.418 10.598 158.712 11.234 159.24 11.714C159.768 12.194 160.416 12.434 161.184 12.434C162.288 12.434 163.068 11.972 163.524 11.048H165.738C165.438 11.96 164.892 12.71 164.1 13.298C163.32 13.874 162.348 14.162 161.184 14.162C160.236 14.162 159.384 13.952 158.628 13.532C157.884 13.1 157.296 12.5 156.864 11.732C156.444 10.952 156.234 10.052 156.234 9.032C156.234 8.012 156.438 7.118 156.846 6.35C157.266 5.57 157.848 4.97 158.592 4.55C159.348 4.13 160.212 3.92 161.184 3.92C162.12 3.92 162.954 4.124 163.686 4.532C164.418 4.94 164.988 5.516 165.396 6.26C165.804 6.992 166.008 7.838 166.008 8.798ZM163.866 8.15C163.854 7.394 163.584 6.788 163.056 6.332C162.528 5.876 161.874 5.648 161.094 5.648C160.386 5.648 159.78 5.876 159.276 6.332C158.772 6.776 158.472 7.382 158.376 8.15H163.866Z" fill="#FDCEAA"/>
</svg>
