<svg width="56" height="12" viewBox="0 0 56 12" fill="none" xmlns="http://www.w3.org/2000/svg">
<path d="M6.602 4.098C6.602 4.91 6.322 5.58667 5.762 6.128C5.21133 6.66 4.36667 6.926 3.228 6.926H1.352V11H0.0780001V1.242H3.228C4.32933 1.242 5.16467 1.508 5.734 2.04C6.31267 2.572 6.602 3.258 6.602 4.098ZM3.228 5.876C3.93733 5.876 4.46 5.722 4.796 5.414C5.132 5.106 5.3 4.66733 5.3 4.098C5.3 2.894 4.60933 2.292 3.228 2.292H1.352V5.876H3.228ZM11.5314 11.126C10.8128 11.126 10.1594 10.9627 9.57142 10.636C8.99276 10.3093 8.53542 9.84733 8.19942 9.25C7.87276 8.64333 7.70942 7.94333 7.70942 7.15C7.70942 6.366 7.87742 5.67533 8.21342 5.078C8.55876 4.47133 9.02542 4.00933 9.61342 3.692C10.2014 3.36533 10.8594 3.202 11.5874 3.202C12.3154 3.202 12.9734 3.36533 13.5614 3.692C14.1494 4.00933 14.6114 4.46667 14.9474 5.064C15.2928 5.66133 15.4654 6.35667 15.4654 7.15C15.4654 7.94333 15.2881 8.64333 14.9334 9.25C14.5881 9.84733 14.1168 10.3093 13.5194 10.636C12.9221 10.9627 12.2594 11.126 11.5314 11.126ZM11.5314 10.006C11.9888 10.006 12.4181 9.89867 12.8194 9.684C13.2208 9.46933 13.5428 9.14733 13.7854 8.718C14.0374 8.28867 14.1634 7.766 14.1634 7.15C14.1634 6.534 14.0421 6.01133 13.7994 5.582C13.5568 5.15267 13.2394 4.83533 12.8474 4.63C12.4554 4.41533 12.0308 4.308 11.5734 4.308C11.1068 4.308 10.6774 4.41533 10.2854 4.63C9.90276 4.83533 9.59476 5.15267 9.36142 5.582C9.12809 6.01133 9.01142 6.534 9.01142 7.15C9.01142 7.77533 9.12342 8.30267 9.34742 8.732C9.58076 9.16133 9.88876 9.48333 10.2714 9.698C10.6541 9.90333 11.0741 10.006 11.5314 10.006ZM18.4145 4.574C18.6385 4.13533 18.9558 3.79467 19.3665 3.552C19.7865 3.30933 20.2952 3.188 20.8925 3.188V4.504H20.5565C19.1285 4.504 18.4145 5.27867 18.4145 6.828V11H17.1405V3.328H18.4145V4.574ZM23.9172 4.378V8.9C23.9172 9.27333 23.9965 9.53933 24.1552 9.698C24.3138 9.84733 24.5892 9.922 24.9812 9.922H25.9192V11H24.7712C24.0618 11 23.5298 10.8367 23.1752 10.51C22.8205 10.1833 22.6432 9.64667 22.6432 8.9V4.378H21.6492V3.328H22.6432V1.396H23.9172V3.328H25.9192V4.378H23.9172ZM30.5848 4.378H28.9748V11H27.7008V4.378H26.7068V3.328H27.7008V2.782C27.7008 1.92333 27.9201 1.298 28.3588 0.906C28.8068 0.504666 29.5208 0.303999 30.5008 0.303999V1.368C29.9408 1.368 29.5441 1.48 29.3108 1.704C29.0868 1.91867 28.9748 2.278 28.9748 2.782V3.328H30.5848V4.378ZM35.4162 11.126C34.6975 11.126 34.0442 10.9627 33.4562 10.636C32.8775 10.3093 32.4202 9.84733 32.0842 9.25C31.7575 8.64333 31.5942 7.94333 31.5942 7.15C31.5942 6.366 31.7622 5.67533 32.0982 5.078C32.4435 4.47133 32.9102 4.00933 33.4982 3.692C34.0862 3.36533 34.7442 3.202 35.4722 3.202C36.2002 3.202 36.8582 3.36533 37.4462 3.692C38.0342 4.00933 38.4962 4.46667 38.8322 5.064C39.1775 5.66133 39.3502 6.35667 39.3502 7.15C39.3502 7.94333 39.1729 8.64333 38.8182 9.25C38.4729 9.84733 38.0015 10.3093 37.4042 10.636C36.8069 10.9627 36.1442 11.126 35.4162 11.126ZM35.4162 10.006C35.8735 10.006 36.3029 9.89867 36.7042 9.684C37.1055 9.46933 37.4275 9.14733 37.6702 8.718C37.9222 8.28867 38.0482 7.766 38.0482 7.15C38.0482 6.534 37.9269 6.01133 37.6842 5.582C37.4415 5.15267 37.1242 4.83533 36.7322 4.63C36.3402 4.41533 35.9155 4.308 35.4582 4.308C34.9915 4.308 34.5622 4.41533 34.1702 4.63C33.7875 4.83533 33.4795 5.15267 33.2462 5.582C33.0129 6.01133 32.8962 6.534 32.8962 7.15C32.8962 7.77533 33.0082 8.30267 33.2322 8.732C33.4655 9.16133 33.7735 9.48333 34.1562 9.698C34.5389 9.90333 34.9589 10.006 35.4162 10.006ZM42.2993 0.64V11H41.0253V0.64H42.2993ZM45.1286 2.082C44.8859 2.082 44.6806 1.998 44.5126 1.83C44.3446 1.662 44.2606 1.45667 44.2606 1.214C44.2606 0.971333 44.3446 0.766 44.5126 0.598C44.6806 0.43 44.8859 0.345999 45.1286 0.345999C45.3619 0.345999 45.5579 0.43 45.7166 0.598C45.8846 0.766 45.9686 0.971333 45.9686 1.214C45.9686 1.45667 45.8846 1.662 45.7166 1.83C45.5579 1.998 45.3619 2.082 45.1286 2.082ZM45.7446 3.328V11H44.4706V3.328H45.7446ZM51.2619 11.126C50.5432 11.126 49.8899 10.9627 49.3019 10.636C48.7232 10.3093 48.2659 9.84733 47.9299 9.25C47.6032 8.64333 47.4399 7.94333 47.4399 7.15C47.4399 6.366 47.6079 5.67533 47.9439 5.078C48.2892 4.47133 48.7559 4.00933 49.3439 3.692C49.9319 3.36533 50.5899 3.202 51.3179 3.202C52.0459 3.202 52.7039 3.36533 53.2919 3.692C53.8799 4.00933 54.3419 4.46667 54.6779 5.064C55.0232 5.66133 55.1959 6.35667 55.1959 7.15C55.1959 7.94333 55.0186 8.64333 54.6639 9.25C54.3186 9.84733 53.8472 10.3093 53.2499 10.636C52.6526 10.9627 51.9899 11.126 51.2619 11.126ZM51.2619 10.006C51.7192 10.006 52.1486 9.89867 52.5499 9.684C52.9512 9.46933 53.2732 9.14733 53.5159 8.718C53.7679 8.28867 53.8939 7.766 53.8939 7.15C53.8939 6.534 53.7726 6.01133 53.5299 5.582C53.2872 5.15267 52.9699 4.83533 52.5779 4.63C52.1859 4.41533 51.7612 4.308 51.3039 4.308C50.8372 4.308 50.4079 4.41533 50.0159 4.63C49.6332 4.83533 49.3252 5.15267 49.0919 5.582C48.8586 6.01133 48.7419 6.534 48.7419 7.15C48.7419 7.77533 48.8539 8.30267 49.0779 8.732C49.3112 9.16133 49.6192 9.48333 50.0019 9.698C50.3846 9.90333 50.8046 10.006 51.2619 10.006Z" fill="#FDCEAA"/>
</svg>
